<svg width="61" height="61" viewBox="0 0 61 61" fill="none" xmlns="http://www.w3.org/2000/svg">
<path d="M56.5281 30.3354C56.5281 23.3735 53.7625 16.6967 48.8397 11.7738C43.9168 6.85102 37.24 4.0854 30.2781 4.0854C23.6681 4.0793 17.2992 6.56712 12.4435 11.0519C7.58773 15.5367 4.60269 21.6883 4.08461 28.278C3.56653 34.8676 5.55356 41.4101 9.64877 46.5986C13.744 51.7872 19.6459 55.2397 26.1756 56.2666V37.9216H19.5156V30.3354H26.1794V24.5529C26.1794 17.9754 30.0981 14.3379 36.0944 14.3379C38.9669 14.3379 41.9706 14.8516 41.9706 14.8516V21.3129H38.6594C35.3969 21.3129 34.3844 23.3379 34.3844 25.4116V30.3354H41.6631L40.5006 37.9216H34.3806V56.2666C40.555 55.2889 46.1779 52.14 50.2378 47.3865C54.2977 42.633 56.5282 36.5867 56.5281 30.3354Z" fill="#1877F2"/>
<path d="M40.4969 37.9217L41.6594 30.3354H34.3806V25.4117C34.3806 23.3379 35.3931 21.3129 38.6556 21.3129H41.9669V14.8479C41.9669 14.8479 38.9631 14.3342 36.0906 14.3342C30.0906 14.3342 26.1756 17.9717 26.1756 24.5492V30.3354H19.5156V37.9217H26.1794V56.2667C28.8976 56.6945 31.6661 56.6945 34.3844 56.2667V37.9217H40.4969Z" fill="white"/>
</svg>
