<?xml version="1.0" encoding="utf-8"?>
<!-- Generator: Adobe Illustrator 16.0.0, SVG Export Plug-In . SVG Version: 6.00 Build 0)  -->
<!DOCTYPE svg PUBLIC "-//W3C//DTD SVG 1.1//EN" "http://www.w3.org/Graphics/SVG/1.1/DTD/svg11.dtd">
<svg version="1.1" xmlns="http://www.w3.org/2000/svg" xmlns:xlink="http://www.w3.org/1999/xlink" x="0px" y="0px"
	 width="41.625px" height="40.375px" viewBox="0 0 41.625 40.375" enable-background="new 0 0 41.625 40.375" xml:space="preserve">
<g id="Layer_1">
	<g>
		<defs>
			<rect id="SVGID_1_" x="-2308" y="-358" width="1920" height="11355.5"/>
		</defs>
		<clipPath id="SVGID_2_">
			<use xlink:href="#SVGID_1_"  overflow="visible"/>
		</clipPath>
		<g clip-path="url(#SVGID_2_)">
			<defs>
				<rect id="SVGID_3_" x="-2308" y="-357.977" width="1920" height="11355.477"/>
			</defs>
			<clipPath id="SVGID_4_">
				<use xlink:href="#SVGID_3_"  overflow="visible"/>
			</clipPath>
		</g>
	</g>
</g>
<g id="Layer_2">
</g>
<g id="Layer_3">
	<path fill="#E84E1B" d="M21.187,0.869c10.596,0,19.186,8.591,19.186,19.187c0,10.595-8.59,19.185-19.186,19.185
		C10.59,39.24,2,30.65,2,20.056C2,9.46,10.59,0.869,21.187,0.869"/>
	<path fill="#FFFFFF" d="M21.187,10.152c3.225,0,3.606,0.011,4.881,0.069c1.178,0.055,1.817,0.251,2.242,0.416
		c0.564,0.22,0.968,0.481,1.39,0.903c0.423,0.423,0.685,0.826,0.903,1.39c0.165,0.426,0.362,1.065,0.416,2.242
		c0.059,1.275,0.07,1.656,0.07,4.882c0,3.227-0.012,3.608-0.07,4.882c-0.054,1.178-0.251,1.816-0.416,2.242
		c-0.219,0.565-0.48,0.968-0.903,1.391c-0.422,0.422-0.825,0.683-1.39,0.902c-0.425,0.165-1.064,0.362-2.242,0.416
		c-1.273,0.059-1.655,0.07-4.881,0.07c-3.227,0-3.608-0.012-4.882-0.07c-1.178-0.054-1.817-0.251-2.243-0.416
		c-0.563-0.22-0.967-0.48-1.389-0.902c-0.423-0.423-0.685-0.825-0.904-1.391c-0.166-0.426-0.361-1.064-0.416-2.242
		c-0.058-1.273-0.069-1.655-0.069-4.882c0-3.226,0.012-3.606,0.069-4.882c0.055-1.177,0.25-1.816,0.416-2.242
		c0.22-0.563,0.481-0.967,0.904-1.39c0.422-0.422,0.825-0.684,1.389-0.903c0.426-0.165,1.065-0.361,2.243-0.416
		C17.578,10.163,17.96,10.152,21.187,10.152 M21.187,7.975c-3.281,0-3.692,0.015-4.981,0.072c-1.285,0.061-2.163,0.265-2.933,0.563
		c-0.793,0.309-1.468,0.722-2.139,1.393c-0.672,0.672-1.085,1.346-1.394,2.141c-0.298,0.769-0.503,1.646-0.562,2.933
		c-0.059,1.288-0.072,1.699-0.072,4.979s0.014,3.692,0.072,4.981c0.059,1.286,0.264,2.164,0.562,2.932
		c0.309,0.794,0.722,1.469,1.394,2.141c0.671,0.671,1.346,1.084,2.139,1.392c0.77,0.299,1.647,0.503,2.933,0.563
		c1.289,0.059,1.7,0.072,4.981,0.072c3.28,0,3.691-0.014,4.979-0.072c1.286-0.06,2.164-0.264,2.933-0.563
		c0.794-0.308,1.469-0.721,2.14-1.392c0.672-0.672,1.085-1.347,1.394-2.141c0.298-0.768,0.502-1.646,0.562-2.932
		c0.059-1.289,0.072-1.701,0.072-4.981s-0.014-3.691-0.072-4.979c-0.06-1.287-0.264-2.164-0.562-2.933
		c-0.309-0.795-0.722-1.469-1.394-2.141c-0.671-0.671-1.346-1.084-2.14-1.393c-0.769-0.298-1.646-0.502-2.933-0.563
		C24.878,7.989,24.467,7.975,21.187,7.975"/>
	<path fill="#FFFFFF" d="M21.187,13.853c-3.427,0-6.203,2.777-6.203,6.203c0,3.425,2.776,6.203,6.203,6.203
		c3.426,0,6.202-2.778,6.202-6.203C27.389,16.63,24.612,13.853,21.187,13.853 M21.187,24.081c-2.225,0-4.027-1.803-4.027-4.025
		c0-2.225,1.803-4.027,4.027-4.027c2.224,0,4.026,1.803,4.026,4.027C25.213,22.278,23.41,24.081,21.187,24.081"/>
	<path fill="#FFFFFF" d="M29.084,13.606c0,0.802-0.649,1.449-1.45,1.449c-0.8,0-1.449-0.647-1.449-1.449
		c0-0.801,0.649-1.449,1.449-1.449C28.435,12.157,29.084,12.806,29.084,13.606"/>
</g>
</svg>
