<svg width="60" height="60" viewBox="0 0 60 60" fill="none" xmlns="http://www.w3.org/2000/svg">
<path d="M30 55C43.8071 55 55 43.8071 55 30C55 16.1929 43.8071 5 30 5C16.1929 5 5 16.1929 5 30C5 43.8071 16.1929 55 30 55Z" fill="#C13584"/>
<path d="M30 17.7027C34.0051 17.7027 34.4796 17.718 36.0613 17.7901C37.5238 17.8569 38.318 18.1012 38.8466 18.3066C39.5467 18.5787 40.0464 18.9038 40.5713 19.4286C41.0963 19.9536 41.4212 20.4533 41.6934 21.1534C41.8987 21.682 42.1431 22.4762 42.2099 23.9386C42.282 25.5204 42.2972 25.9948 42.2972 29.9999C42.2972 34.0051 42.282 34.4795 42.2099 36.0613C42.1431 37.5238 41.8987 38.3179 41.6934 38.8465C41.4212 39.5466 41.0962 40.0464 40.5714 40.5713C40.0464 41.0961 39.5467 41.4211 38.8466 41.6932C38.318 41.8987 37.5238 42.143 36.0613 42.2097C34.4799 42.2819 34.0055 42.2972 30 42.2972C25.9945 42.2972 25.5202 42.2819 23.9387 42.2097C22.4762 42.143 21.682 41.8987 21.1534 41.6932C20.4533 41.4211 19.9536 41.0961 19.4288 40.5713C18.9039 40.0464 18.5787 39.5466 18.3066 38.8465C18.1012 38.3179 17.8569 37.5238 17.7901 36.0613C17.718 34.4795 17.7027 34.0051 17.7027 29.9999C17.7027 25.9948 17.718 25.5204 17.7901 23.9386C17.8569 22.4762 18.1012 21.682 18.3066 21.1534C18.5787 20.4533 18.9038 19.9536 19.4288 19.4288C19.9536 18.9038 20.4533 18.5787 21.1534 18.3066C21.682 18.1012 22.4762 17.8569 23.9387 17.7901C25.5204 17.718 25.9949 17.7027 30 17.7027ZM30 15C25.9262 15 25.4154 15.0172 23.8155 15.0902C22.219 15.1631 21.1285 15.4166 20.1744 15.7875C19.188 16.1708 18.3515 16.6836 17.5176 17.5176C16.6836 18.3515 16.1708 19.188 15.7875 20.1744C15.4166 21.1285 15.1631 22.2189 15.0902 23.8155C15.0172 25.4154 15 25.9263 15 29.9999C15 34.0738 15.0172 34.5845 15.0902 36.1844C15.1631 37.781 15.4166 38.8714 15.7875 39.8255C16.1708 40.8119 16.6836 41.6484 17.5176 42.4824C18.3515 43.3163 19.188 43.8291 20.1744 44.2124C21.1285 44.5832 22.219 44.8368 23.8155 44.9096C25.4154 44.9826 25.9262 44.9999 30 44.9999C34.0738 44.9999 34.5846 44.9826 36.1845 44.9096C37.781 44.8368 38.8715 44.5832 39.8256 44.2124C40.812 43.8291 41.6485 43.3163 42.4824 42.4824C43.3163 41.6484 43.8292 40.8119 44.2125 39.8255C44.5834 38.8714 44.8369 37.781 44.9097 36.1844C44.9827 34.5845 45 34.0738 45 29.9999C45 25.9263 44.9827 25.4154 44.9097 23.8155C44.8369 22.2189 44.5834 21.1285 44.2125 20.1744C43.8292 19.188 43.3163 18.3515 42.4824 17.5176C41.6485 16.6836 40.812 16.1708 39.8256 15.7875C38.8715 15.4166 37.781 15.1631 36.1845 15.0902C34.5846 15.0172 34.0738 15 30 15Z" fill="white"/>
<path d="M30.0074 22.3041C25.7532 22.3041 22.3047 25.7526 22.3047 30.0068C22.3047 34.2609 25.7532 37.7094 30.0074 37.7094C34.2615 37.7094 37.7101 34.2609 37.7101 30.0068C37.7101 25.7526 34.2615 22.3041 30.0074 22.3041ZM30.0074 35.0068C27.246 35.0068 25.0074 32.7681 25.0074 30.0068C25.0074 27.2454 27.246 25.0068 30.0074 25.0068C32.7689 25.0068 35.0074 27.2454 35.0074 30.0068C35.0074 32.7681 32.7689 35.0068 30.0074 35.0068Z" fill="white"/>
<path d="M39.8134 21.9954C39.8134 22.9894 39.0075 23.7954 38.0134 23.7954C37.0193 23.7954 36.2134 22.9894 36.2134 21.9954C36.2134 21.0013 37.0193 20.1953 38.0134 20.1953C39.0075 20.1953 39.8134 21.0013 39.8134 21.9954Z" fill="white"/>
</svg>
