<svg width="60" height="60" viewBox="0 0 60 60" fill="none" xmlns="http://www.w3.org/2000/svg">
<g clip-path="url(#clip0_1532_13)">
<path d="M27.1875 42V47.325H32.8125V42C33.7546 41.5569 34.5531 40.8578 35.1167 39.9825C35.6804 39.1072 35.9864 38.091 36 37.05C35.9758 36.2866 35.8013 35.5354 35.4866 34.8394C35.1719 34.1435 34.7231 33.5163 34.1658 32.9939C33.6086 32.4715 32.9539 32.0641 32.2391 31.7949C31.5243 31.5257 30.7634 31.4 30 31.425C29.2366 31.4 28.4757 31.5257 27.7609 31.7949C27.0461 32.0641 26.3914 32.4715 25.8342 32.9939C25.2769 33.5163 24.8281 34.1435 24.5134 34.8394C24.1987 35.5354 24.0242 36.2866 24 37.05C24.0136 38.091 24.3196 39.1072 24.8833 39.9825C25.4469 40.8578 26.2454 41.5569 27.1875 42Z" fill="#9e9e9d"/>
<path d="M55.3125 18.75H50.625C50.3434 13.5404 48.0209 8.65154 44.1606 5.14211C40.3002 1.63268 35.2127 -0.214734 30 -2.16728e-05C24.7873 -0.214734 19.6998 1.63268 15.8394 5.14211C11.9791 8.65154 9.65659 13.5404 9.375 18.75H4.6875C3.4443 18.75 2.25201 19.2438 1.37294 20.1229C0.49386 21.002 0 22.1943 0 23.4375L0 55.3125C0 56.5557 0.49386 57.748 1.37294 58.627C2.25201 59.5061 3.4443 60 4.6875 60H55.3125C56.5557 60 57.748 59.5061 58.6271 58.627C59.5061 57.748 60 56.5557 60 55.3125V23.4375C60 22.1943 59.5061 21.002 58.6271 20.1229C57.748 19.2438 56.5557 18.75 55.3125 18.75ZM30 4.68748C33.9681 4.48074 37.8591 5.83732 40.8386 8.46624C43.818 11.0952 45.6486 14.787 45.9375 18.75H14.0625C14.3514 14.787 16.182 11.0952 19.1614 8.46624C22.1409 5.83732 26.0319 4.48074 30 4.68748ZM55.3125 55.3125H4.6875V23.4375H55.3125V55.3125Z" fill="#9e9e9d"/>
</g>
<defs>
<clipPath id="clip0_1532_13">
<rect width="60" height="60" fill="white"/>
</clipPath>
</defs>
</svg>
