<svg width="41" height="41" viewBox="0 0 41 41" fill="none" xmlns="http://www.w3.org/2000/svg">
<circle cx="20.1643" cy="20.1643" r="20.1643" fill="#FF0000"/>
<path fill-rule="evenodd" clip-rule="evenodd" d="M11.8233 14.6745C11.6813 13.005 13.0973 11.8134 14.6032 11.8134H16.4892C17.3894 11.8134 18.2011 12.3549 18.5467 13.186L19.4759 15.4205C19.794 16.1853 19.6614 17.0635 19.1317 17.7004L18.1369 18.8966C18.7788 19.8716 19.5873 20.7507 20.5082 21.4785L21.8087 20.3927C22.4467 19.8599 23.3284 19.7266 24.0955 20.0468L26.3213 20.976C27.1509 21.3224 27.691 22.1332 27.691 23.032C27.691 23.3421 27.6934 23.6523 27.6958 23.9659V23.9672C27.6981 24.2794 27.7005 24.5951 27.7005 24.9114C27.7005 26.417 26.5089 27.8331 24.8389 27.6905C18.0555 27.1114 12.4017 21.4736 11.8233 14.6745ZM14.6032 13.4019C13.8537 13.4019 13.3571 13.9623 13.4062 14.5399C13.9189 20.5668 18.9601 25.5944 24.974 26.1078C25.5513 26.1571 26.1118 25.6608 26.1118 24.9114C26.1118 24.6017 26.1095 24.2916 26.1071 23.9779V23.976C26.1047 23.6639 26.1023 23.3484 26.1023 23.032C26.1023 22.774 25.9473 22.5413 25.7092 22.4419L23.4834 21.5126C23.2632 21.4207 23.0101 21.4589 22.8269 21.6119L20.5774 23.4902L20.0789 23.1395C18.6218 22.1142 17.3731 20.7648 16.4745 19.2303L16.1929 18.7495L17.9102 16.6848C18.0622 16.502 18.1003 16.2499 18.009 16.0303L17.0798 13.7959C16.9806 13.5573 16.7476 13.4019 16.4892 13.4019H14.6032Z" fill="white"/>
<circle cx="19.9606" cy="19.9606" r="13.4797" stroke="white" stroke-width="4"/>
</svg>
