<?xml version="1.0" encoding="utf-8"?>
<!-- Generator: Adobe Illustrator 16.0.0, SVG Export Plug-In . SVG Version: 6.00 Build 0)  -->
<!DOCTYPE svg PUBLIC "-//W3C//DTD SVG 1.1//EN" "http://www.w3.org/Graphics/SVG/1.1/DTD/svg11.dtd">
<svg version="1.1" xmlns="http://www.w3.org/2000/svg" xmlns:xlink="http://www.w3.org/1999/xlink" x="0px" y="0px" width="30.25px"
	 height="36.715px" viewBox="0 0 30.25 36.715" enable-background="new 0 0 30.25 36.715" xml:space="preserve">
<g id="Layer_1">
	<g>
		<defs>
			<rect id="SVGID_11_" x="-1940" y="-0.003" width="1920" height="2203.343"/>
		</defs>
		<clipPath id="SVGID_2_">
			<use xlink:href="#SVGID_11_"  overflow="visible"/>
		</clipPath>
	</g>
</g>
<g id="Layer_2">
	<g display="none">
		<path display="inline" fill="#9C9B9B" d="M4.705,30.087c0.179,0,0.35-0.07,0.477-0.197c0.126-0.126,0.197-0.298,0.197-0.476
			V19.276c0.001-0.372,0.302-0.674,0.673-0.674h24.237c0.372,0,0.674,0.302,0.674,0.674v10.138c0,0.372,0.302,0.673,0.673,0.673
			c0.372,0,0.673-0.301,0.673-0.673V19.276c0-1.116-0.903-2.018-2.02-2.02h-0.671v-4.04c0-4.089-2.183-7.868-5.724-9.913
			c-3.542-2.043-7.904-2.043-11.446,0c-3.541,2.045-5.723,5.824-5.723,9.913v4.04H6.052c-1.114,0.002-2.018,0.904-2.02,2.02v10.138
			c0,0.178,0.072,0.35,0.198,0.476C4.356,30.017,4.526,30.087,4.705,30.087L4.705,30.087z M25.578,17.256H10.765v-4.04
			c0-2.646,1.412-5.09,3.703-6.413c2.291-1.323,5.116-1.323,7.407,0c2.291,1.323,3.703,3.767,3.703,6.413V17.256z M8.072,13.216
			c0-3.609,1.926-6.942,5.05-8.746c3.124-1.805,6.974-1.805,10.1,0c3.124,1.804,5.05,5.139,5.05,8.746v4.04h-1.347v-4.04
			c0-3.127-1.668-6.016-4.376-7.58c-2.709-1.564-6.045-1.564-8.753,0c-2.709,1.564-4.377,4.452-4.377,7.58v4.04H8.073L8.072,13.216z
			"/>
		<path display="inline" fill="#9C9B9B" d="M20.19,29.374v-0.675c1.158-0.87,1.632-2.382,1.173-3.757
			c-0.458-1.374-1.744-2.299-3.192-2.299c-1.447,0-2.734,0.925-3.193,2.299c-0.458,1.375,0.016,2.887,1.174,3.757v0.675
			c0.007,0.367,0.307,0.662,0.674,0.662c0.365,0,0.666-0.295,0.673-0.662c-0.047-0.468,0.183-1.36-0.338-1.621v0.002
			c-0.79-0.458-1.175-1.389-0.938-2.271c0.237-0.882,1.035-1.495,1.949-1.495c0.912,0,1.712,0.613,1.949,1.495
			c0.238,0.882-0.148,1.813-0.939,2.271c-0.52,0.261-0.291,1.153-0.338,1.621l0.001-0.002c0.007,0.367,0.308,0.662,0.674,0.662
			C19.885,30.036,20.184,29.74,20.19,29.374"/>
		<path display="inline" fill="#9C9B9B" d="M30.962,31.394H5.378c-5.339,0.187-5.351,7.888,0,8.08h25.584
			c2.232,0,4.04-1.808,4.04-4.04C35.002,33.204,33.194,31.394,30.962,31.394 M30.962,38.126H5.378
			c-1.476-0.013-2.668-1.215-2.668-2.693s1.192-2.68,2.668-2.693h25.584c1.479,0.013,2.67,1.215,2.67,2.693
			S32.44,38.114,30.962,38.126"/>
		<path display="inline" fill="#9C9B9B" d="M7.201,34.284c-0.17-0.15-0.398-0.214-0.621-0.175c-0.224,0.037-0.418,0.175-0.528,0.374
			C5.27,33.469,4.087,34.651,5.1,35.435c-1.015,0.783,0.168,1.965,0.952,0.953c0.782,1.013,1.965-0.168,0.953-0.953v-0.001
			c0.198-0.11,0.334-0.305,0.373-0.527C7.416,34.683,7.352,34.454,7.201,34.284"/>
		<path display="inline" fill="#9C9B9B" d="M13.261,34.284c-0.17-0.15-0.398-0.214-0.623-0.175
			c-0.222,0.037-0.416,0.175-0.526,0.374c-0.782-1.014-1.964,0.168-0.952,0.952c-1.015,0.783,0.168,1.965,0.952,0.953
			c0.782,1.013,1.965-0.168,0.952-0.953v-0.001c0.197-0.11,0.336-0.305,0.374-0.527C13.475,34.683,13.411,34.454,13.261,34.284z"/>
		<path display="inline" fill="#9C9B9B" d="M19.321,34.284c-0.17-0.15-0.399-0.214-0.623-0.175
			c-0.223,0.037-0.417,0.175-0.527,0.374c-0.782-1.014-1.964,0.168-0.952,0.952c-1.014,0.783,0.168,1.965,0.952,0.953
			c0.783,1.013,1.965-0.168,0.953-0.953v-0.001c0.197-0.11,0.335-0.305,0.372-0.527C19.535,34.683,19.471,34.454,19.321,34.284"/>
		<path display="inline" fill="#9C9B9B" d="M24.904,34.76h-1.347c-0.372,0-0.674,0.301-0.674,0.673c0,0.372,0.302,0.674,0.674,0.674
			h1.347c0.367-0.007,0.66-0.307,0.66-0.674C25.564,35.066,25.271,34.767,24.904,34.76"/>
		<path display="inline" fill="#9C9B9B" d="M30.962,34.76h-1.345c-0.372,0-0.673,0.301-0.673,0.673c0,0.372,0.301,0.674,0.673,0.674
			h1.347h-0.002c0.367-0.007,0.661-0.307,0.661-0.674C31.623,35.066,31.329,34.767,30.962,34.76"/>
	</g>
	<path fill="#9C9B9B" d="M15.097,19.803c-5.171,0-9.4-4.231-9.4-9.402C5.696,5.23,9.926,1,15.097,1s9.401,4.23,9.401,9.401
		C24.498,15.572,20.268,19.803,15.097,19.803 M15.097,2.566c-4.309,0-7.835,3.526-7.835,7.834c0,4.309,3.526,7.835,7.835,7.835
		c4.31,0,7.834-3.526,7.834-7.835C22.931,6.093,19.406,2.566,15.097,2.566"/>
	<path fill="none" stroke="#9C9B9B" stroke-width="0.5" stroke-miterlimit="10" d="M15.097,19.803c-5.171,0-9.4-4.231-9.4-9.402
		C5.696,5.23,9.926,1,15.097,1s9.401,4.23,9.401,9.401C24.498,15.572,20.268,19.803,15.097,19.803z M15.097,2.566
		c-4.309,0-7.835,3.526-7.835,7.834c0,4.309,3.526,7.835,7.835,7.835c4.31,0,7.834-3.526,7.834-7.835
		C22.931,6.093,19.406,2.566,15.097,2.566z"/>
	<path fill="#9C9B9B" d="M29.199,35.472H5.617c-0.47,0-0.783-0.313-0.783-0.783c0-0.471,0.313-0.784,0.783-0.784h22.015
		c-0.392-6.581-5.876-11.752-12.535-11.752c-6.894,0-12.534,5.641-12.534,12.536c0,0.47-0.314,0.783-0.784,0.783
		c-0.471,0-0.783-0.313-0.783-0.783c0-7.757,6.346-14.102,14.102-14.102c7.757,0,14.103,6.345,14.103,14.102V35.472z"/>
	<path fill="none" stroke="#9C9B9B" stroke-width="0.5" stroke-miterlimit="10" d="M29.199,35.472H5.617
		c-0.47,0-0.783-0.313-0.783-0.783c0-0.471,0.313-0.784,0.783-0.784h22.015c-0.392-6.581-5.876-11.752-12.535-11.752
		c-6.894,0-12.534,5.641-12.534,12.536c0,0.47-0.314,0.783-0.784,0.783c-0.471,0-0.783-0.313-0.783-0.783
		c0-7.757,6.346-14.102,14.102-14.102c7.757,0,14.103,6.345,14.103,14.102V35.472z"/>
</g>
</svg>
