<svg width="131" height="131" viewBox="0 0 131 131" fill="none" xmlns="http://www.w3.org/2000/svg">
<g clip-path="url(#clip0_1532_16)">
<path d="M0 65.5C0 101.675 29.3254 131 65.5 131C101.675 131 131 101.675 131 65.5C131 29.3254 101.675 0 65.5 0C29.3254 0 0 29.3254 0 65.5Z" fill="#1BD741"/>
<path d="M19.6886 111.361L26.1054 88.5709C21.979 81.5609 19.8065 73.585 19.8065 65.3915C19.8065 40.1634 40.331 19.6389 65.5591 19.6389C90.7872 19.6389 111.311 40.1634 111.311 65.3915C111.311 90.6196 90.7872 111.144 65.5591 111.144C57.6982 111.144 50.0008 109.132 43.1914 105.311L19.6886 111.361ZM44.393 96.9875L45.7934 97.8426C51.7304 101.467 58.5654 103.383 65.5591 103.383C86.5076 103.383 103.55 86.34 103.55 65.3915C103.55 44.443 86.5076 27.4001 65.5591 27.4001C44.6106 27.4001 27.5676 44.443 27.5676 65.3915C27.5676 72.6907 29.6422 79.779 33.5664 85.8899L34.5096 87.3585L30.8144 100.483L44.393 96.9875Z" fill="white"/>
<path d="M52.7066 44.0969L49.7378 43.9351C48.8053 43.8842 47.8907 44.1958 47.1858 44.8081C45.7466 46.0579 43.4452 48.4742 42.7384 51.6229C41.6843 56.3179 43.3133 62.0669 47.5293 67.8159C51.7454 73.5649 59.6023 82.7633 73.4956 86.6919C77.9726 87.9578 81.4945 87.1043 84.2117 85.3661C86.3639 83.9895 87.8474 81.7799 88.3821 79.282L88.8561 77.068C89.0067 76.3643 88.6494 75.6503 87.9957 75.3491L77.9623 70.7243C77.3109 70.4242 76.5385 70.6139 76.1005 71.1816L72.1615 76.2879C71.864 76.6736 71.3547 76.8266 70.8947 76.665C68.1973 75.717 59.1616 71.9327 54.2037 62.3825C53.9886 61.9683 54.0421 61.4655 54.3471 61.1122L58.1115 56.7574C58.4961 56.3127 58.5933 55.6875 58.3622 55.1471L54.0372 45.0285C53.807 44.4898 53.291 44.1288 52.7066 44.0969Z" fill="white"/>
</g>
<defs>
<clipPath id="clip0_1532_16">
<rect width="131" height="131" fill="white"/>
</clipPath>
</defs>
</svg>
