<?xml version="1.0" encoding="utf-8"?>
<!-- Generator: Adobe Illustrator 16.0.0, SVG Export Plug-In . SVG Version: 6.00 Build 0)  -->
<!DOCTYPE svg PUBLIC "-//W3C//DTD SVG 1.1//EN" "http://www.w3.org/Graphics/SVG/1.1/DTD/svg11.dtd">
<svg version="1.1" xmlns="http://www.w3.org/2000/svg" xmlns:xlink="http://www.w3.org/1999/xlink" x="0px" y="0px" width="138.5px"
	 height="139.5px" viewBox="0 0 138.5 139.5" enable-background="new 0 0 138.5 139.5" xml:space="preserve">
<g id="Layer_1">
	<g>
		<defs>
			<rect id="SVGID_1_" x="-2308" width="1920" height="11355.5"/>
		</defs>
		<clipPath id="SVGID_2_">
			<use xlink:href="#SVGID_1_"  overflow="visible"/>
		</clipPath>
		<g clip-path="url(#SVGID_2_)">
			<defs>
				<rect id="SVGID_3_" x="-2308" y="0.023" width="1920" height="11355.477"/>
			</defs>
			<clipPath id="SVGID_4_">
				<use xlink:href="#SVGID_3_"  overflow="visible"/>
			</clipPath>
		</g>
	</g>
</g>
<g id="Layer_2">
	<g>
		<defs>
			<rect id="SVGID_256_" x="-885.999" y="-7715.537" width="1920" height="11355.477"/>
		</defs>
		<clipPath id="SVGID_6_">
			<use xlink:href="#SVGID_256_"  overflow="visible"/>
		</clipPath>
		<path clip-path="url(#SVGID_6_)" fill="#FFFFFF" d="M93.25,130.537c-7.396,0-14.649-1.956-21.073-5.671l-16.461,5.671
			l3.383-17.431c-9.911-13.583-11.063-31.642-1.581-48.746c2.454-4.426,6.056-8.138,10.372-10.777
			c33.125-20.244,67.611,3.278,67.611,34.705C135.501,111.584,116.549,130.537,93.25,130.537"/>
		<path clip-path="url(#SVGID_6_)" fill="#FFFFFF" d="M92.871,130.158c-7.396,0-14.649-1.956-21.073-5.671l-16.461,5.671
			l3.383-17.432c-9.898-13.566-11.059-31.598-1.611-48.683c2.467-4.473,6.103-8.222,10.468-10.874
			c33.103-20.179,67.546,3.332,67.546,34.739C135.122,111.205,116.17,130.158,92.871,130.158"/>
		<path clip-path="url(#SVGID_6_)" fill="#FDFFFF" d="M92.492,129.778c-7.396,0-14.648-1.956-21.073-5.671l-16.461,5.671
			l3.383-17.431c-9.887-13.55-11.055-31.555-1.641-48.621c2.479-4.519,6.15-8.304,10.562-10.97
			c33.082-20.114,67.481,3.387,67.481,34.772C134.743,110.826,115.791,129.778,92.492,129.778"/>
		<path clip-path="url(#SVGID_6_)" fill="#FDFDFD" d="M92.113,129.399c-7.395,0-14.648-1.956-21.073-5.671l-16.461,5.671
			l3.384-17.431c-9.875-13.534-11.052-31.512-1.671-48.559c2.49-4.565,6.197-8.388,10.654-11.066
			c33.062-20.049,67.418,3.44,67.418,34.807C134.364,110.446,115.413,129.399,92.113,129.399"/>
		<path clip-path="url(#SVGID_6_)" fill="#FDFDFD" d="M91.735,129.02c-7.396,0-14.649-1.955-21.073-5.67l-16.461,5.67l3.383-17.431
			c-9.862-13.517-11.003-31.444-1.7-48.495c2.514-4.606,6.252-8.459,10.749-11.164c33.091-19.897,67.354,3.495,67.354,34.842
			C133.986,110.067,115.034,129.02,91.735,129.02"/>
		<path clip-path="url(#SVGID_6_)" fill="#FCFCFC" d="M91.356,128.641c-7.396,0-14.649-1.955-21.073-5.671l-16.461,5.671
			l3.384-17.431c-9.852-13.501-10.99-31.396-1.73-48.432c2.527-4.652,6.301-8.54,10.843-11.261
			c33.082-19.814,67.289,3.549,67.289,34.875C133.607,109.688,114.655,128.641,91.356,128.641"/>
		<path clip-path="url(#SVGID_6_)" fill="#FBFBFC" d="M90.978,128.262c-7.396,0-14.648-1.956-21.072-5.671l-16.462,5.671
			l3.384-17.432c-9.84-13.483-10.976-31.347-1.761-48.369c2.543-4.697,6.351-8.62,10.937-11.356
			c33.072-19.731,67.226,3.603,67.226,34.908C133.229,109.309,114.276,128.262,90.978,128.262"/>
		<path clip-path="url(#SVGID_6_)" fill="#FBFBFC" d="M90.599,127.883c-7.395,0-14.648-1.956-21.072-5.672l-16.461,5.672
			l3.383-17.432c-9.827-13.467-10.963-31.299-1.79-48.307c2.558-4.743,6.399-8.7,11.032-11.453
			c33.061-19.648,67.159,3.657,67.159,34.942C132.85,108.93,113.897,127.883,90.599,127.883"/>
		<path clip-path="url(#SVGID_6_)" fill="#FAFAFB" d="M90.221,127.503c-7.396,0-14.649-1.956-21.073-5.671l-16.461,5.671
			l3.383-17.431c-9.814-13.451-10.949-31.251-1.82-48.244c2.573-4.789,6.449-8.781,11.127-11.55
			c33.05-19.566,67.096,3.712,67.096,34.976C132.472,108.55,113.52,127.503,90.221,127.503"/>
		<path clip-path="url(#SVGID_6_)" fill="#F9F9FB" d="M89.842,127.124c-7.396,0-14.649-1.956-21.073-5.671l-16.461,5.671
			l3.383-17.431c-9.803-13.435-10.936-31.204-1.85-48.182c2.587-4.835,6.498-8.861,11.22-11.646
			c33.039-19.485,67.032,3.766,67.032,35.01C132.093,108.171,113.141,127.124,89.842,127.124"/>
		<path clip-path="url(#SVGID_6_)" fill="#F9F9FA" d="M89.438,126.692c-7.396,0-14.649-1.956-21.073-5.671l-16.461,5.671
			l3.383-17.431c-9.791-13.418-10.924-31.156-1.88-48.119c2.603-4.879,6.547-8.941,11.315-11.742
			c33.025-19.404,66.967,3.819,66.967,35.043C131.688,107.74,112.736,126.692,89.438,126.692"/>
		<path clip-path="url(#SVGID_6_)" fill="#F8F8FA" d="M89.057,126.31c-7.396,0-14.649-1.956-21.073-5.671l-16.461,5.671
			l3.383-17.431c-9.779-13.402-10.912-31.109-1.908-48.057c2.615-4.925,6.596-9.022,11.407-11.839
			c33.015-19.325,66.903,3.874,66.903,35.077C131.308,107.356,112.355,126.31,89.057,126.31"/>
		<path clip-path="url(#SVGID_6_)" fill="#F8F8FA" d="M88.676,125.926c-7.396,0-14.649-1.956-21.073-5.671l-16.461,5.671
			l3.383-17.431c-9.767-13.386-10.899-31.062-1.938-47.993c2.63-4.971,6.646-9.104,11.503-11.936
			c33.001-19.246,66.838,3.928,66.838,35.11C130.927,106.973,111.975,125.926,88.676,125.926"/>
		<path clip-path="url(#SVGID_6_)" fill="#F8F7F9" d="M88.295,125.543c-7.395,0-14.649-1.956-21.073-5.671l-16.461,5.671
			l3.383-17.432c-9.754-13.367-10.889-31.015-1.969-47.93c2.646-5.017,6.694-9.184,11.598-12.033
			c32.987-19.166,66.773,3.982,66.773,35.146C130.546,106.59,111.594,125.543,88.295,125.543"/>
		<path clip-path="url(#SVGID_6_)" fill="#F7F7F8" d="M87.915,125.16c-7.396,0-14.649-1.956-21.074-5.672L50.38,125.16l3.384-17.432
			c-9.743-13.352-10.878-30.968-1.999-47.867c2.66-5.063,6.742-9.265,11.691-12.13c32.974-19.088,66.709,4.037,66.709,35.18
			C130.165,106.207,111.214,125.16,87.915,125.16"/>
		<path clip-path="url(#SVGID_6_)" fill="#F6F6F7" d="M87.534,124.777c-7.396,0-14.649-1.956-21.073-5.672L50,124.777l3.383-17.432
			c-9.731-13.335-10.866-30.921-2.028-47.805c2.674-5.108,6.791-9.345,11.785-12.227c32.959-19.011,66.646,4.092,66.646,35.214
			C129.785,105.824,110.833,124.777,87.534,124.777"/>
		<path clip-path="url(#SVGID_6_)" fill="#F6F6F7" d="M87.153,124.395c-7.395,0-14.648-1.956-21.072-5.671l-16.461,5.671
			l3.383-17.432c-9.719-13.318-10.857-30.875-2.06-47.741c2.688-5.154,6.841-9.427,11.88-12.323
			c32.945-18.934,66.581,4.145,66.581,35.247C129.404,105.441,110.452,124.395,87.153,124.395"/>
		<path clip-path="url(#SVGID_6_)" fill="#F5F5F6" d="M86.773,124.012c-7.396,0-14.649-1.956-21.073-5.671l-16.461,5.671
			l3.383-17.431c-9.706-13.302-10.847-30.829-2.089-47.679c2.703-5.2,6.89-9.509,11.974-12.42
			c32.932-18.857,66.518,4.198,66.518,35.28C129.024,105.059,110.072,124.012,86.773,124.012"/>
		<path clip-path="url(#SVGID_6_)" fill="#F4F5F6" d="M86.393,123.629c-7.395,0-14.648-1.955-21.073-5.671l-16.461,5.671
			l3.384-17.431c-9.694-13.286-10.837-30.783-2.118-47.616c2.716-5.246,6.938-9.589,12.068-12.516
			c32.915-18.782,66.451,4.253,66.451,35.314C128.644,104.676,109.692,123.629,86.393,123.629"/>
		<path clip-path="url(#SVGID_6_)" fill="#F4F4F6" d="M86.013,123.247c-7.396,0-14.648-1.956-21.073-5.671l-16.461,5.671
			l3.384-17.431c-9.683-13.27-10.828-30.737-2.148-47.555c2.73-5.291,6.986-9.668,12.162-12.611
			c32.898-18.707,66.388,4.307,66.388,35.348C128.264,104.294,109.312,123.247,86.013,123.247"/>
		<path clip-path="url(#SVGID_6_)" fill="#F3F3F5" d="M85.633,122.865c-7.396,0-14.649-1.956-21.073-5.671l-16.461,5.671
			l3.383-17.432c-9.67-13.252-10.818-30.691-2.178-47.49c2.744-5.338,7.035-9.751,12.256-12.709
			c32.884-18.633,66.324,4.361,66.324,35.382C127.884,103.912,108.932,122.865,85.633,122.865"/>
		<path clip-path="url(#SVGID_6_)" fill="#F2F2F5" d="M85.253,122.482c-7.396,0-14.649-1.955-21.073-5.67l-16.462,5.67l3.384-17.431
			c-9.658-13.235-10.81-30.646-2.208-47.428c2.759-5.384,7.084-9.832,12.352-12.806c32.866-18.559,66.259,4.416,66.259,35.416
			C127.504,103.53,108.552,122.482,85.253,122.482"/>
		<path clip-path="url(#SVGID_6_)" fill="#F2F2F4" d="M84.872,122.102c-7.396,0-14.648-1.956-21.072-5.672l-16.461,5.672
			l3.383-17.432c-9.646-13.22-10.801-30.6-2.238-47.365c2.773-5.43,7.133-9.912,12.445-12.901
			c32.85-18.485,66.194,4.469,66.194,35.449C127.123,103.148,108.172,122.102,84.872,122.102"/>
		<path clip-path="url(#SVGID_6_)" fill="#F2F1F4" d="M84.492,121.719c-7.395,0-14.649-1.955-21.073-5.67l-16.461,5.67l3.383-17.431
			c-9.633-13.202-10.791-30.555-2.268-47.303c2.787-5.476,7.182-9.994,12.539-12.998c32.834-18.412,66.131,4.524,66.131,35.483
			C126.743,102.767,107.791,121.719,84.492,121.719"/>
		<path clip-path="url(#SVGID_6_)" fill="#F1F1F4" d="M84.112,121.338c-7.395,0-14.648-1.956-21.072-5.671l-16.461,5.671
			l3.383-17.432c-9.623-13.186-10.785-30.51-2.299-47.239c2.801-5.522,7.23-10.075,12.635-13.095
			c32.815-18.34,66.065,4.577,66.065,35.517C126.363,102.385,107.411,121.338,84.112,121.338"/>
		<path clip-path="url(#SVGID_6_)" fill="#F0F0F2" d="M83.732,120.956c-7.395,0-14.649-1.956-21.073-5.671l-16.461,5.671
			l3.383-17.431c-9.609-13.17-10.775-30.465-2.327-47.177c2.815-5.568,7.278-10.157,12.728-13.192
			c32.799-18.267,66.002,4.632,66.002,35.551C125.983,102.004,107.031,120.956,83.732,120.956"/>
		<path clip-path="url(#SVGID_6_)" fill="#F0F0F2" d="M83.353,120.575c-7.395,0-14.648-1.956-21.072-5.671l-16.461,5.671
			l3.383-17.431c-9.598-13.153-10.768-30.422-2.357-47.115c2.828-5.613,7.326-10.238,12.821-13.288
			c32.781-18.195,65.938,4.687,65.938,35.585C125.604,101.622,106.651,120.575,83.353,120.575"/>
		<path clip-path="url(#SVGID_6_)" fill="#EFEFF1" d="M82.974,120.193c-7.396,0-14.649-1.955-21.073-5.671l-16.462,5.671
			l3.384-17.431c-9.586-13.137-10.761-30.376-2.388-47.052c2.843-5.66,7.375-10.319,12.916-13.385
			c32.763-18.125,65.874,4.74,65.874,35.619C125.225,101.24,106.272,120.193,82.974,120.193"/>
		<path clip-path="url(#SVGID_6_)" fill="#EEEFF1" d="M82.594,119.813c-7.396,0-14.649-1.955-21.073-5.671l-16.461,5.671
			l3.383-17.431c-9.574-13.121-10.754-30.331-2.417-46.989c2.856-5.706,7.423-10.4,13.011-13.481
			c32.743-18.054,65.809,4.795,65.809,35.653C124.845,100.859,105.893,119.813,82.594,119.813"/>
		<path clip-path="url(#SVGID_6_)" fill="#EEEEF0" d="M82.214,119.432c-7.396,0-14.648-1.956-21.073-5.671l-16.461,5.671
			l3.384-17.431c-9.563-13.104-10.748-30.287-2.447-46.927c2.869-5.752,7.472-10.482,13.104-13.577
			c32.727-17.984,65.745,4.849,65.745,35.686C124.465,100.479,105.513,119.432,82.214,119.432"/>
		<path clip-path="url(#SVGID_6_)" fill="#EDEEF0" d="M81.834,119.051c-7.395,0-14.649-1.956-21.073-5.671L44.3,119.051
			l3.383-17.431c-9.549-13.087-10.739-30.243-2.477-46.864c2.883-5.799,7.52-10.564,13.199-13.674
			c32.706-17.914,65.68,4.902,65.68,35.72C124.085,100.098,105.133,119.051,81.834,119.051"/>
		<path clip-path="url(#SVGID_6_)" fill="#ECEDF0" d="M81.455,118.67c-7.396,0-14.649-1.955-21.073-5.671l-16.461,5.671
			l3.383-17.431c-9.538-13.071-10.734-30.199-2.507-46.801c2.896-5.845,7.567-10.646,13.293-13.771
			c32.687-17.844,65.616,4.957,65.616,35.755C123.706,99.717,104.754,118.67,81.455,118.67"/>
		<path clip-path="url(#SVGID_6_)" fill="#ECEDEF" d="M81.075,118.289c-7.395,0-14.648-1.955-21.073-5.67l-16.461,5.67l3.384-17.431
			c-9.526-13.055-10.728-30.155-2.537-46.737c2.91-5.893,7.617-10.729,13.387-13.868c32.668-17.775,65.552,5.011,65.552,35.788
			C123.326,99.337,104.374,118.289,81.075,118.289"/>
		<path clip-path="url(#SVGID_6_)" fill="#ECECEF" d="M80.696,117.909c-7.396,0-14.649-1.956-21.073-5.671l-16.462,5.671
			l3.384-17.431c-9.515-13.039-10.722-30.111-2.567-46.676c2.924-5.938,7.665-10.81,13.482-13.965
			c32.647-17.707,65.487,5.066,65.487,35.822C122.947,98.956,103.995,117.909,80.696,117.909"/>
		<path clip-path="url(#SVGID_6_)" fill="#EAEBED" d="M80.316,117.528c-7.396,0-14.649-1.956-21.073-5.671l-16.461,5.671
			l3.383-17.431c-9.502-13.021-10.715-30.066-2.596-46.613c2.936-5.983,7.713-10.891,13.575-14.06
			c32.628-17.64,65.423,5.119,65.423,35.854C122.567,98.576,103.615,117.528,80.316,117.528"/>
		<path clip-path="url(#SVGID_6_)" fill="#EAEAED" d="M79.938,117.148c-7.396,0-14.649-1.956-21.073-5.671l-16.461,5.671
			l3.383-17.432c-9.49-13.004-10.71-30.022-2.626-46.55c2.949-6.03,7.761-10.973,13.669-14.157
			c32.608-17.57,65.359,5.174,65.359,35.89C122.188,98.195,103.236,117.148,79.938,117.148"/>
		<path clip-path="url(#SVGID_6_)" fill="#E9EAED" d="M79.558,116.768c-7.395,0-14.648-1.955-21.072-5.67l-16.461,5.67l3.383-17.431
			C35.93,86.35,34.703,69.358,42.751,52.85c2.963-6.076,7.809-11.056,13.764-14.254c32.587-17.504,65.294,5.229,65.294,35.924
			C121.809,97.815,102.856,116.768,79.558,116.768"/>
		<path clip-path="url(#SVGID_6_)" fill="#E8E8EC" d="M79.179,116.388c-7.395,0-14.648-1.956-21.073-5.671l-16.461,5.671
			l3.384-17.431c-9.466-12.972-10.699-29.936-2.687-46.424c2.976-6.124,7.856-11.139,13.858-14.352
			c32.566-17.437,65.229,5.282,65.229,35.957C121.43,97.436,102.478,116.388,79.179,116.388"/>
		<path clip-path="url(#SVGID_6_)" fill="#E8E8EC" d="M78.8,116.008c-7.395,0-14.649-1.955-21.073-5.671l-16.461,5.671l3.383-17.431
			c-9.452-12.955-10.694-29.892-2.716-46.362c2.989-6.17,7.905-11.219,13.952-14.447c32.546-17.369,65.166,5.337,65.166,35.992
			C121.051,97.055,102.099,116.008,78.8,116.008"/>
		<path clip-path="url(#SVGID_6_)" fill="#E8E7EB" d="M78.421,115.628c-7.396,0-14.649-1.956-21.073-5.671l-16.461,5.671
			l3.383-17.431c-9.44-12.939-10.688-29.849-2.746-46.299c3.002-6.217,7.953-11.303,14.047-14.544
			c32.525-17.304,65.102,5.391,65.102,36.024C120.672,96.676,101.72,115.628,78.421,115.628"/>
		<path clip-path="url(#SVGID_6_)" fill="#E7E7EA" d="M78.042,115.248c-7.396,0-14.649-1.955-21.074-5.671l-16.461,5.671
			l3.384-17.431c-9.429-12.922-10.685-29.806-2.776-46.236c3.016-6.264,8.001-11.384,14.141-14.64
			C87.76,19.702,120.292,42.386,120.292,73C120.292,96.295,101.341,115.248,78.042,115.248"/>
		<path clip-path="url(#SVGID_6_)" fill="#E6E6E9" d="M77.663,114.869c-7.396,0-14.649-1.956-21.074-5.672l-16.461,5.672
			l3.384-17.432c-9.417-12.906-10.681-29.763-2.806-46.173c3.027-6.311,8.049-11.467,14.235-14.737
			c32.482-17.173,64.972,5.498,64.972,36.093C119.913,95.916,100.962,114.869,77.663,114.869"/>
		<path clip-path="url(#SVGID_6_)" fill="#E6E6E9" d="M77.284,114.489c-7.396,0-14.649-1.956-21.074-5.671l-16.461,5.671
			l3.384-17.431c-9.405-12.89-10.675-29.721-2.835-46.111c3.04-6.356,8.096-11.548,14.328-14.833
			c32.461-17.108,64.908,5.553,64.908,36.126C119.534,95.536,100.583,114.489,77.284,114.489"/>
		<path clip-path="url(#SVGID_6_)" fill="#E5E5E9" d="M76.904,114.109c-7.395,0-14.648-1.955-21.073-5.671l-16.461,5.671
			l3.384-17.431c-9.394-12.873-10.671-29.677-2.865-46.048c3.053-6.403,8.144-11.631,14.423-14.93
			c32.439-17.043,64.844,5.606,64.844,36.16C119.155,95.156,100.204,114.109,76.904,114.109"/>
		<path clip-path="url(#SVGID_6_)" fill="#E4E5E8" d="M76.526,113.73c-7.396,0-14.649-1.956-21.074-5.671l-16.461,5.671
			l3.384-17.432c-9.382-12.855-10.667-29.634-2.896-45.984c3.066-6.45,8.192-11.714,14.518-15.027
			c32.417-16.979,64.779,5.661,64.779,36.194C118.776,94.777,99.825,113.73,76.526,113.73"/>
		<path clip-path="url(#SVGID_6_)" fill="#E4E4E8" d="M76.147,113.351c-7.396,0-14.649-1.956-21.073-5.671l-16.461,5.671
			l3.383-17.431c-9.369-12.84-10.663-29.591-2.925-45.923c3.078-6.496,8.24-11.796,14.611-15.123
			c32.396-16.914,64.716,5.716,64.716,36.228C118.398,94.398,99.446,113.351,76.147,113.351"/>
		<path clip-path="url(#SVGID_6_)" fill="#E3E4E7" d="M75.769,112.972c-7.395,0-14.649-1.956-21.073-5.671l-16.461,5.671
			l3.383-17.431c-9.356-12.823-10.659-29.548-2.955-45.86c3.091-6.543,8.288-11.879,14.706-15.219
			c32.373-16.851,64.651,5.769,64.651,36.261C118.02,94.019,99.067,112.972,75.769,112.972"/>
		<path clip-path="url(#SVGID_6_)" fill="#E3E3E7" d="M75.39,112.593c-7.395,0-14.648-1.956-21.073-5.671l-16.461,5.671
			l3.384-17.431c-9.346-12.808-10.656-29.506-2.986-45.797c3.104-6.592,8.337-11.962,14.802-15.316
			c32.35-16.788,64.586,5.822,64.586,36.295C117.641,93.64,98.688,112.593,75.39,112.593"/>
		<path clip-path="url(#SVGID_6_)" fill="#E3E3E7" d="M75.011,112.213c-7.395,0-14.648-1.955-21.072-5.67l-16.461,5.67l3.383-17.431
			c-9.334-12.79-10.653-29.463-3.016-45.733c3.116-6.638,8.385-12.045,14.895-15.413c32.328-16.725,64.522,5.878,64.522,36.329
			C117.262,93.261,98.31,112.213,75.011,112.213"/>
		<path clip-path="url(#SVGID_6_)" fill="#E2E2E5" d="M74.633,111.834c-7.396,0-14.649-1.955-21.073-5.67l-16.461,5.67l3.383-17.431
			c-9.321-12.772-10.65-29.421-3.044-45.672c3.128-6.684,8.43-12.126,14.987-15.509c32.306-16.661,64.459,5.932,64.459,36.363
			C116.884,92.882,97.932,111.834,74.633,111.834"/>
		<path clip-path="url(#SVGID_6_)" fill="#E1E1E5" d="M74.254,111.455c-7.396,0-14.649-1.955-21.073-5.67l-16.461,5.67l3.383-17.431
			c-9.309-12.757-10.646-29.378-3.074-45.608c3.141-6.731,8.479-12.211,15.084-15.606c32.28-16.599,64.393,5.986,64.393,36.397
			C116.505,92.503,97.553,111.455,74.254,111.455"/>
		<path clip-path="url(#SVGID_6_)" fill="#E1E1E4" d="M73.876,111.077c-7.396,0-14.65-1.956-21.074-5.671l-16.461,5.671
			l3.383-17.431C30.427,80.906,29.08,64.311,36.62,48.1c3.152-6.777,8.526-12.293,15.178-15.703
			c32.258-16.535,64.328,6.041,64.328,36.432C116.126,92.124,97.175,111.077,73.876,111.077"/>
		<path clip-path="url(#SVGID_6_)" fill="#E0E0E4" d="M73.497,110.698c-7.396,0-14.649-1.956-21.073-5.671l-16.461,5.671
			l3.383-17.431c-9.284-12.725-10.642-29.294-3.134-45.483c3.165-6.825,8.574-12.376,15.271-15.799
			c32.235-16.476,64.265,6.094,64.265,36.464C115.748,91.745,96.797,110.698,73.497,110.698"/>
		<path clip-path="url(#SVGID_6_)" fill="#DFDFE3" d="M73.118,110.319c-7.395,0-14.648-1.956-21.072-5.671l-16.461,5.671
			l3.383-17.431c-9.272-12.707-10.639-29.251-3.164-45.421c3.177-6.872,8.621-12.459,15.365-15.896
			c32.212-16.412,64.2,6.148,64.2,36.498C115.369,91.367,96.418,110.319,73.118,110.319"/>
		<path clip-path="url(#SVGID_6_)" fill="#DFDFE3" d="M72.74,109.941c-7.396,0-14.649-1.956-21.073-5.671l-16.461,5.671
			l3.383-17.432c-9.26-12.69-10.636-29.209-3.193-45.357c3.188-6.919,8.668-12.542,15.459-15.992
			c32.188-16.352,64.137,6.203,64.137,36.532C114.991,90.988,96.039,109.941,72.74,109.941"/>
		<path clip-path="url(#SVGID_6_)" fill="#DEDEE3" d="M72.362,109.563c-7.396,0-14.649-1.955-21.074-5.671l-16.461,5.671
			l3.384-17.431c-9.248-12.674-10.634-29.167-3.224-45.295c3.2-6.966,8.715-12.626,15.553-16.089
			c32.166-16.291,64.072,6.257,64.072,36.566C114.612,90.609,95.662,109.563,72.362,109.563"/>
		<path clip-path="url(#SVGID_6_)" fill="#DDDEE2" d="M71.983,109.185c-7.395,0-14.648-1.956-21.073-5.671l-16.461,5.671
			l3.384-17.431C28.597,79.096,27.2,62.629,34.579,46.521c3.213-7.014,8.764-12.709,15.648-16.186
			c32.141-16.23,64.007,6.311,64.007,36.6C114.234,90.231,95.282,109.185,71.983,109.185"/>
		<path clip-path="url(#SVGID_6_)" fill="#DDDDE2" d="M71.604,108.807c-7.395,0-14.648-1.956-21.072-5.672l-16.461,5.672
			l3.383-17.432c-9.225-12.642-10.629-29.083-3.283-45.17c3.225-7.06,8.811-12.792,15.742-16.281
			c32.117-16.17,63.943,6.364,63.943,36.634C113.856,89.854,94.905,108.807,71.604,108.807"/>
		<path clip-path="url(#SVGID_6_)" fill="#DDDDE1" d="M71.228,108.428c-7.396,0-14.649-1.956-21.074-5.671l-16.461,5.671
			l3.384-17.431c-9.212-12.625-10.628-29.041-3.313-45.107c3.236-7.106,8.858-12.875,15.836-16.378
			c32.094-16.109,63.879,6.419,63.879,36.667C113.478,89.475,94.526,108.428,71.228,108.428"/>
		<path clip-path="url(#SVGID_6_)" fill="#DCDCE0" d="M70.849,108.05c-7.395,0-14.648-1.956-21.072-5.671l-16.462,5.671
			l3.384-17.431c-9.201-12.608-10.627-28.999-3.344-45.044C36.602,38.42,42.26,32.616,49.286,29.1
			C81.354,13.05,113.1,35.573,113.1,65.801C113.1,89.097,94.148,108.05,70.849,108.05"/>
		<path clip-path="url(#SVGID_6_)" fill="#DCDCE0" d="M70.471,107.672c-7.396,0-14.649-1.956-21.073-5.671l-16.461,5.671
			l3.383-17.432c-9.188-12.592-10.623-28.957-3.373-44.98c3.26-7.202,8.953-13.043,16.025-16.572
			c32.045-15.988,63.75,6.528,63.75,36.735C112.722,88.719,93.771,107.672,70.471,107.672"/>
		<path clip-path="url(#SVGID_6_)" fill="#DBDBDF" d="M70.093,107.294c-7.395,0-14.649-1.956-21.073-5.671l-16.461,5.671
			l3.383-17.431c-9.176-12.575-10.623-28.916-3.403-44.92c3.271-7.248,9-13.125,16.119-16.668
			c32.021-15.93,63.687,6.582,63.687,36.77C112.344,88.341,93.392,107.294,70.093,107.294"/>
		<path clip-path="url(#SVGID_6_)" fill="#DADBDF" d="M69.715,106.916c-7.396,0-14.649-1.956-21.073-5.671l-16.461,5.671
			l3.383-17.432c-9.164-12.559-10.621-28.873-3.434-44.855c3.283-7.296,9.048-13.21,16.215-16.766
			c31.996-15.869,63.621,6.637,63.621,36.804C111.966,87.963,93.015,106.916,69.715,106.916"/>
		<path clip-path="url(#SVGID_6_)" fill="#D9DADE" d="M69.337,106.538c-7.396,0-14.649-1.956-21.073-5.671l-16.461,5.671
			l3.383-17.431c-9.151-12.542-10.62-28.832-3.463-44.793c3.294-7.344,9.095-13.294,16.308-16.862
			c31.972-15.812,63.558,6.69,63.558,36.837C111.588,87.585,92.637,106.538,69.337,106.538"/>
		<path clip-path="url(#SVGID_6_)" fill="#D9DADE" d="M68.958,106.16c-7.395,0-14.648-1.955-21.072-5.671l-16.461,5.671
			l3.383-17.431C25.667,76.203,24.188,59.939,31.315,44c3.305-7.392,9.141-13.379,16.401-16.959
			c31.947-15.752,63.493,6.744,63.493,36.871C111.21,87.207,92.259,106.16,68.958,106.16"/>
		<path clip-path="url(#SVGID_6_)" fill="#D8D9DD" d="M68.581,105.783c-7.396,0-14.649-1.956-21.073-5.672l-16.461,5.672
			l3.383-17.432c-9.128-12.509-10.618-28.749-3.522-44.668c3.315-7.438,9.188-13.462,16.496-17.054
			c31.923-15.695,63.429,6.798,63.429,36.904C110.832,86.83,91.881,105.783,68.581,105.783"/>
		<path clip-path="url(#SVGID_6_)" fill="#D7D8DD" d="M68.203,105.405c-7.396,0-14.649-1.956-21.073-5.671l-16.461,5.671
			l3.383-17.431C24.937,75.481,23.435,59.268,30.5,43.369c3.327-7.486,9.235-13.546,16.59-17.15
			c31.897-15.637,63.364,6.853,63.364,36.938C110.454,86.452,91.503,105.405,68.203,105.405"/>
		<path clip-path="url(#SVGID_6_)" fill="#D7D8DD" d="M67.825,105.027c-7.395,0-14.649-1.955-21.073-5.671l-16.461,5.671
			l3.383-17.431c-9.104-12.476-10.616-28.666-3.582-44.542c3.339-7.534,9.283-13.63,16.685-17.248
			c31.872-15.578,63.3,6.907,63.3,36.973C110.076,86.074,91.125,105.027,67.825,105.027"/>
		<path clip-path="url(#SVGID_6_)" fill="#D6D7DB" d="M67.447,104.65c-7.396,0-14.649-1.956-21.073-5.671l-16.461,5.671
			l3.383-17.432C24.204,74.76,22.681,58.596,29.685,42.74c3.349-7.581,9.33-13.715,16.779-17.345
			c31.847-15.521,63.234,6.961,63.234,37.006C109.698,85.697,90.747,104.65,67.447,104.65"/>
		<path clip-path="url(#SVGID_6_)" fill="#D5D6DB" d="M67.069,104.272c-7.395,0-14.648-1.956-21.072-5.671l-16.461,5.671
			l3.383-17.431c-9.08-12.443-10.615-28.583-3.643-44.417c3.36-7.628,9.377-13.798,16.873-17.44
			C77.972,9.521,109.32,32,109.32,62.023C109.32,85.32,90.369,104.272,67.069,104.272"/>
		<path clip-path="url(#SVGID_6_)" fill="#D5D6DA" d="M66.692,103.896c-7.396,0-14.649-1.956-21.074-5.671l-16.461,5.671
			l3.384-17.431c-9.067-12.428-10.615-28.541-3.673-44.354c3.371-7.676,9.425-13.883,16.968-17.538
			c31.797-15.404,63.106,7.07,63.106,37.074C108.942,84.942,89.992,103.896,66.692,103.896"/>
		<path clip-path="url(#SVGID_6_)" fill="#D4D5DA" d="M66.313,103.519c-7.395,0-14.648-1.956-21.072-5.671l-16.461,5.671
			l3.383-17.431c-9.055-12.41-10.613-28.5-3.702-44.291c3.382-7.725,9.472-13.968,17.062-17.635
			c31.771-15.348,63.043,7.123,63.043,37.107C108.565,84.565,89.614,103.519,66.313,103.519"/>
		<path clip-path="url(#SVGID_6_)" fill="#D3D4DA" d="M65.937,103.141c-7.395,0-14.648-1.955-21.073-5.67l-16.461,5.67l3.384-17.431
			c-9.043-12.393-10.615-28.459-3.731-44.228c3.391-7.771,9.517-14.053,17.155-17.731c31.746-15.291,62.978,7.177,62.978,37.142
			C108.188,84.188,89.236,103.141,65.937,103.141"/>
		<path clip-path="url(#SVGID_6_)" fill="#D3D4D9" d="M65.56,102.764c-7.396,0-14.649-1.955-21.074-5.671l-16.461,5.671
			l3.384-17.431c-9.031-12.377-10.614-28.417-3.761-44.166c3.401-7.817,9.563-14.136,17.248-17.827
			c31.722-15.234,62.914,7.232,62.914,37.176C107.81,83.811,88.859,102.764,65.56,102.764"/>
		<path clip-path="url(#SVGID_6_)" fill="#D3D3D9" d="M65.182,102.387c-7.396,0-14.649-1.955-21.073-5.671l-16.461,5.671
			l3.383-17.431c-9.02-12.361-10.613-28.376-3.791-44.103c3.412-7.866,9.611-14.222,17.344-17.924
			c31.695-15.178,62.85,7.285,62.85,37.209C107.433,83.434,88.481,102.387,65.182,102.387"/>
		<path clip-path="url(#SVGID_6_)" fill="#D2D2D7" d="M64.804,102.01c-7.395,0-14.648-1.955-21.072-5.671l-16.461,5.671
			l3.383-17.431c-9.008-12.344-10.614-28.335-3.821-44.04c3.423-7.914,9.657-14.306,17.438-18.021
			c31.668-15.12,62.784,7.341,62.784,37.244C107.055,83.057,88.104,102.01,64.804,102.01"/>
		<path clip-path="url(#SVGID_6_)" fill="#D2D2D7" d="M64.427,101.633c-7.396,0-14.649-1.955-21.073-5.671l-16.461,5.671
			l3.383-17.431c-8.995-12.328-10.614-28.294-3.851-43.978c3.433-7.961,9.705-14.391,17.533-18.116
			c31.643-15.066,62.72,7.394,62.72,37.276C106.678,82.68,87.727,101.633,64.427,101.633"/>
		<path clip-path="url(#SVGID_6_)" fill="#D1D1D6" d="M64.05,101.256c-7.396,0-14.649-1.955-21.074-5.671l-16.461,5.671
			l3.384-17.431c-8.983-12.312-10.614-28.253-3.882-43.915c3.444-8.009,9.752-14.475,17.627-18.213
			C75.262,6.688,106.3,29.146,106.3,59.008C106.3,82.303,87.35,101.256,64.05,101.256"/>
		<path clip-path="url(#SVGID_6_)" fill="#D0D1D6" d="M63.672,100.879c-7.396,0-14.649-1.955-21.073-5.67l-16.461,5.67l3.383-17.431
			c-8.971-12.294-10.615-28.212-3.91-43.852c3.453-8.058,9.797-14.56,17.721-18.31c31.592-14.955,62.592,7.502,62.592,37.344
			C105.923,81.927,86.972,100.879,63.672,100.879"/>
		<path clip-path="url(#SVGID_6_)" fill="#D0D0D6" d="M63.294,100.503c-7.395,0-14.648-1.956-21.072-5.671l-16.461,5.671
			l3.383-17.431C20.185,70.794,18.528,54.9,25.204,39.283c3.463-8.105,9.844-14.646,17.814-18.407
			c31.566-14.898,62.527,7.557,62.527,37.378C105.546,81.55,86.595,100.503,63.294,100.503"/>
		<path clip-path="url(#SVGID_6_)" fill="#CFD0D5" d="M62.917,100.126c-7.395,0-14.648-1.956-21.073-5.671l-16.461,5.671
			l3.384-17.431c-8.947-12.262-10.617-28.129-3.971-43.727c3.473-8.152,9.891-14.729,17.909-18.504
			c31.54-14.842,62.463,7.611,62.463,37.412C105.168,81.173,86.217,100.126,62.917,100.126"/>
		<path clip-path="url(#SVGID_6_)" fill="#CECFD5" d="M62.54,99.75c-7.395,0-14.649-1.956-21.073-5.672L25.006,99.75l3.383-17.432
			c-8.935-12.244-10.616-28.089-4-43.664c3.483-8.199,9.938-14.814,18.003-18.6c31.514-14.787,62.399,7.665,62.399,37.446
			C104.791,80.797,85.84,99.75,62.54,99.75"/>
		<path clip-path="url(#SVGID_6_)" fill="#CECFD4" d="M62.163,99.373c-7.396,0-14.649-1.956-21.073-5.671l-16.462,5.671
			l3.384-17.431c-8.923-12.229-10.617-28.048-4.03-43.602c3.493-8.249,9.984-14.899,18.098-18.695
			c31.488-14.733,62.335,7.719,62.335,37.479C104.414,80.42,85.463,99.373,62.163,99.373"/>
		<path clip-path="url(#SVGID_6_)" fill="#CECED4" d="M61.786,98.996c-7.396,0-14.65-1.955-21.074-5.67l-16.461,5.67l3.383-17.431
			c-8.91-12.212-10.617-28.007-4.06-43.538c3.503-8.297,10.031-14.985,18.192-18.793c31.462-14.678,62.27,7.773,62.27,37.514
			C104.036,80.044,85.085,98.996,61.786,98.996"/>
		<path clip-path="url(#SVGID_6_)" fill="#CDCED4" d="M61.408,98.62c-7.396,0-14.649-1.956-21.073-5.671L23.874,98.62l3.383-17.431
			c-8.898-12.195-10.619-27.965-4.09-43.475c3.514-8.346,10.078-15.072,18.286-18.891c31.437-14.623,62.206,7.827,62.206,37.547
			C103.659,79.667,84.708,98.62,61.408,98.62"/>
		<path clip-path="url(#SVGID_6_)" fill="#CCCDD3" d="M61.031,98.244c-7.396,0-14.649-1.956-21.073-5.671l-16.461,5.671
			l3.383-17.432C17.993,68.634,16.261,52.888,22.761,37.4c3.522-8.393,10.123-15.156,18.381-18.986
			c31.408-14.568,62.141,7.882,62.141,37.581C103.282,79.291,84.331,98.244,61.031,98.244"/>
		<path clip-path="url(#SVGID_6_)" fill="#CCCDD3" d="M60.654,97.867c-7.396,0-14.649-1.955-21.073-5.671L23.12,97.867l3.383-17.431
			c-8.875-12.162-10.621-27.883-4.15-43.35c3.533-8.44,10.172-15.242,18.476-19.083c31.383-14.515,62.077,7.936,62.077,37.615
			C102.905,78.914,83.954,97.867,60.654,97.867"/>
		<path clip-path="url(#SVGID_6_)" fill="#CBCCD2" d="M60.305,97.54c-7.396,0-14.649-1.956-21.073-5.671L22.771,97.54l3.383-17.431
			c-8.861-12.146-10.622-27.844-4.179-43.287c3.541-8.489,10.216-15.328,18.567-19.18c31.357-14.461,62.014,7.99,62.014,37.648
			C102.556,78.587,83.604,97.54,60.305,97.54"/>
		<path clip-path="url(#SVGID_6_)" fill="#CBCCD2" d="M59.926,97.161c-7.396,0-14.649-1.956-21.073-5.671l-16.461,5.671
			l3.383-17.431c-8.85-12.129-10.623-27.803-4.209-43.226c3.551-8.536,10.264-15.413,18.664-19.274
			c31.33-14.407,61.947,8.043,61.947,37.682C102.177,78.208,83.226,97.161,59.926,97.161"/>
		<path clip-path="url(#SVGID_6_)" fill="#CBCBD1" d="M59.548,96.781c-7.396,0-14.65-1.955-21.074-5.671l-16.461,5.671l3.383-17.431
			c-8.838-12.112-10.625-27.761-4.238-43.162c3.559-8.584,10.309-15.499,18.757-19.372c31.304-14.353,61.884,8.098,61.884,37.717
			C101.798,77.828,82.847,96.781,59.548,96.781"/>
		<path clip-path="url(#SVGID_6_)" fill="#CACBD1" d="M59.169,96.402c-7.396,0-14.649-1.956-21.074-5.671l-16.461,5.671
			l3.384-17.431c-8.826-12.097-10.627-27.72-4.269-43.099c3.568-8.634,10.355-15.586,18.851-19.47
			c31.278-14.299,61.819,8.152,61.819,37.75C101.419,77.449,82.469,96.402,59.169,96.402"/>
		<path clip-path="url(#SVGID_6_)" fill="#C9CAD0" d="M58.79,96.023c-7.396,0-14.649-1.956-21.073-5.672l-16.461,5.672l3.383-17.432
			c-8.813-12.078-10.628-27.679-4.299-43.035c3.578-8.682,10.401-15.672,18.946-19.566c31.25-14.245,61.755,8.207,61.755,37.784
			C101.041,77.07,82.09,96.023,58.79,96.023"/>
		<path clip-path="url(#SVGID_6_)" fill="#C9CACF" d="M58.411,95.644c-7.395,0-14.648-1.956-21.073-5.671l-16.461,5.671
			l3.384-17.431c-8.803-12.063-10.631-27.639-4.33-42.974c3.588-8.729,10.449-15.757,19.041-19.662
			c31.225-14.192,61.69,8.261,61.69,37.817C100.662,76.691,81.711,95.644,58.411,95.644"/>
		<path clip-path="url(#SVGID_6_)" fill="#C8C9CF" d="M58.032,95.265c-7.395,0-14.648-1.956-21.072-5.671l-16.461,5.671
			l3.383-17.431c-8.791-12.047-10.633-27.599-4.359-42.911c3.596-8.777,10.495-15.843,19.134-19.759
			c31.198-14.14,61.627,8.314,61.627,37.852C100.283,76.312,81.332,95.265,58.032,95.265"/>
		<path clip-path="url(#SVGID_6_)" fill="#C7C8CE" d="M57.653,94.885c-7.395,0-14.648-1.955-21.072-5.67l-16.461,5.67l3.383-17.431
			c-8.778-12.03-10.633-27.557-4.389-42.848c3.604-8.826,10.541-15.931,19.229-19.854C69.514,0.665,99.904,23.12,99.904,52.637
			C99.904,75.933,80.954,94.885,57.653,94.885"/>
		<path clip-path="url(#SVGID_6_)" fill="#C7C8CE" d="M57.274,94.506c-7.395,0-14.648-1.956-21.072-5.671l-16.461,5.671
			l3.383-17.431c-8.766-12.013-10.635-27.517-4.418-42.785c3.613-8.874,10.587-16.017,19.322-19.952
			c31.145-14.033,61.498,8.423,61.498,37.919C99.526,75.553,80.575,94.506,57.274,94.506"/>
		<path clip-path="url(#SVGID_6_)" fill="#C6C7CE" d="M56.896,94.127c-7.396,0-14.649-1.956-21.073-5.671l-16.461,5.671
			l3.383-17.432c-8.754-11.996-10.637-27.475-4.447-42.723c3.621-8.922,10.625-16.119,19.416-20.048
			c31.09-14.043,61.434,8.478,61.434,37.953C99.147,75.174,80.196,94.127,56.896,94.127"/>
		<path clip-path="url(#SVGID_6_)" fill="#C6C7CD" d="M56.518,93.747c-7.396,0-14.649-1.956-21.073-5.671l-16.461,5.671
			l3.383-17.431c-8.742-11.98-10.664-27.445-4.478-42.66c3.615-8.976,10.673-16.203,19.511-20.145
			c31.069-13.979,61.369,8.531,61.369,37.986C98.769,74.795,79.817,93.747,56.518,93.747"/>
		<path clip-path="url(#SVGID_6_)" fill="#C6C7CD" d="M56.14,93.368c-7.396,0-14.649-1.956-21.074-5.671l-16.461,5.671l3.384-17.431
			c-8.73-11.964-10.66-27.402-4.509-42.598c3.627-9.023,10.722-16.285,19.605-20.241C68.133-0.814,98.39,21.685,98.39,51.119
			C98.39,74.415,79.439,93.368,56.14,93.368"/>
		<path clip-path="url(#SVGID_6_)" fill="#C5C6CC" d="M55.761,92.988c-7.396,0-14.649-1.955-21.073-5.67l-16.461,5.67l3.383-17.431
			C12.892,63.611,10.953,48.2,17.071,33.023c3.639-9.07,10.768-16.369,19.699-20.338c31.027-13.849,61.241,8.64,61.241,38.055
			C98.012,74.036,79.061,92.988,55.761,92.988"/>
		<path clip-path="url(#SVGID_6_)" fill="#C4C5CC" d="M55.382,92.609c-7.395,0-14.648-1.955-21.073-5.671l-16.461,5.671
			l3.383-17.431c-8.706-11.931-10.651-27.315-4.567-42.472c3.65-9.117,10.815-16.452,19.793-20.435
			c31.006-13.784,61.177,8.694,61.177,38.089C97.633,73.656,78.682,92.609,55.382,92.609"/>
		<path clip-path="url(#SVGID_6_)" fill="#C3C4CA" d="M55.003,92.23c-7.395,0-14.648-1.956-21.073-5.671L17.469,92.23l3.384-17.432
			c-8.694-11.914-10.648-27.271-4.599-42.408c3.663-9.164,10.864-16.535,19.888-20.531c30.984-13.72,61.112,8.748,61.112,38.122
			C97.254,73.277,78.303,92.23,55.003,92.23"/>
	</g>
	<g>
		<defs>
			<path id="SVGID_258_" d="M12.502,49.98c0,9.066,2.815,17.681,8.159,25.002l-3.409,17.561l16.584-5.714
				c6.472,3.742,13.776,5.714,21.228,5.714c23.473,0,42.563-19.094,42.563-42.563c0-23.468-19.091-42.563-42.563-42.563
				C31.596,7.418,12.502,26.513,12.502,49.98"/>
		</defs>
		<clipPath id="SVGID_8_">
			<use xlink:href="#SVGID_258_"  overflow="visible"/>
		</clipPath>
		
			<radialGradient id="SVGID_10_" cx="-2254.7705" cy="11391.1387" r="0.9992" gradientTransform="matrix(85.4557 -87.7346 -87.7346 -85.4557 1192100.375 775712.375)" gradientUnits="userSpaceOnUse">
			<stop  offset="0" style="stop-color:#F7F7F8"/>
			<stop  offset="0.2849" style="stop-color:#F7F7F8"/>
			<stop  offset="0.4949" style="stop-color:#E7E8EA"/>
			<stop  offset="0.7469" style="stop-color:#DBDDE0"/>
			<stop  offset="1" style="stop-color:#D7D9DD"/>
		</radialGradient>
		<polygon clip-path="url(#SVGID_8_)" fill="url(#SVGID_10_)" points="-30.046,51.101 53.944,-35.129 140.175,48.861 
			56.185,135.091 		"/>
	</g>
	<g>
		<defs>
			<rect id="SVGID_261_" x="-885.999" y="-7715.537" width="1920" height="11355.477"/>
		</defs>
		<clipPath id="SVGID_12_">
			<use xlink:href="#SVGID_261_"  overflow="visible"/>
		</clipPath>
		<path clip-path="url(#SVGID_12_)" fill="#009C3D" d="M55.003,79.556c-5.177,0-10.254-1.369-14.751-3.97l-11.522,3.97l2.369-12.201
			c-3.714-5.089-5.67-11.073-5.67-17.373c0-16.308,13.268-29.575,29.574-29.575c16.311,0,29.576,13.268,29.576,29.575
			S71.313,79.556,55.003,79.556"/>
	</g>
	<g>
		<defs>
			<rect id="SVGID_263_" x="-885.999" y="-7715.537" width="1920" height="11355.477"/>
		</defs>
		<clipPath id="SVGID_13_">
			<use xlink:href="#SVGID_263_"  overflow="visible"/>
		</clipPath>
		<path clip-path="url(#SVGID_13_)" fill="#FFFFFF" d="M55.003,69.303c-3.381,0-6.698-0.896-9.637-2.594l-7.527,2.594l1.547-7.973
			c-2.425-3.324-3.704-7.232-3.704-11.35c0-10.654,8.668-19.321,19.321-19.321c10.654,0,19.322,8.667,19.322,19.321
			S65.657,69.303,55.003,69.303 M45.714,63.549l0.582,0.365c2.624,1.645,5.635,2.514,8.707,2.514c9.07,0,16.447-7.378,16.447-16.447
			c0-9.068-7.377-16.446-16.447-16.446c-9.068,0-16.446,7.378-16.446,16.446c0,3.689,1.209,7.186,3.493,10.11l0.404,0.516
			l-0.846,4.356L45.714,63.549z"/>
		<path clip-path="url(#SVGID_13_)" fill="#FFFFFF" d="M45.249,42.557c0,0,1.135-1.98,2.059-2.094s2.113-0.113,2.435,0.49
			s1.755,4.115,1.755,4.115s0.246,0.604-0.132,1.189c-0.377,0.584-1.226,1.434-1.226,1.434s-0.473,0.604,0,1.246
			c0.472,0.641,1.203,1.82,2.718,3.334c1.512,1.513,4.415,2.592,4.415,2.592s0.416,0.057,0.681-0.207
			c0.263-0.265,1.699-2.057,1.699-2.057s0.46-0.596,1.226-0.246c0.764,0.349,4.076,2.001,4.076,2.001s0.389,0.141,0.389,0.726
			s-0.238,2.018-0.722,2.5c-0.485,0.485-1.899,1.977-4.026,1.977s-7.191-1.729-9.891-4.429c-2.699-2.7-5.096-5.437-5.661-7.927
			C44.476,44.709,44.552,43.583,45.249,42.557"/>
	</g>
</g>
</svg>
