<?xml version="1.0" encoding="utf-8"?>
<!-- Generator: Adobe Illustrator 16.0.0, SVG Export Plug-In . SVG Version: 6.00 Build 0)  -->
<!DOCTYPE svg PUBLIC "-//W3C//DTD SVG 1.1//EN" "http://www.w3.org/Graphics/SVG/1.1/DTD/svg11.dtd">
<svg version="1.1" id="Layer_1" xmlns="http://www.w3.org/2000/svg" xmlns:xlink="http://www.w3.org/1999/xlink" x="0px" y="0px"
	 width="94.417px" height="93.917px" viewBox="0 0 94.417 93.917" enable-background="new 0 0 94.417 93.917" xml:space="preserve">
<g id="Layer_1_1_">
	<g>
		<g>
			<defs>
				<rect id="SVGID_1_" x="-2308" width="1920" height="11355.5"/>
			</defs>
			<clipPath id="SVGID_2_">
				<use xlink:href="#SVGID_1_"  overflow="visible"/>
			</clipPath>
		</g>
	</g>
</g>
<g id="Layer_2">
	<g>
		<g>
			<defs>
				<path id="SVGID_3_" d="M5.502,46.98c0,9.066,2.815,17.681,8.159,25.002l-3.409,17.561l16.584-5.714
					c6.472,3.741,13.776,5.714,21.228,5.714c23.473,0,42.563-19.094,42.563-42.563c0-23.468-19.091-42.563-42.563-42.563
					C24.596,4.418,5.502,23.513,5.502,46.98"/>
			</defs>
			<clipPath id="SVGID_4_">
				<use xlink:href="#SVGID_3_"  overflow="visible"/>
			</clipPath>
			
				<radialGradient id="SVGID_5_" cx="-2435.7959" cy="-11067.6152" r="0.9992" gradientTransform="matrix(85.4557 -87.7346 87.7346 85.4557 1179178.875 732180.3125)" gradientUnits="userSpaceOnUse">
				<stop  offset="0" style="stop-color:#F7F7F8"/>
				<stop  offset="0.2849" style="stop-color:#F7F7F8"/>
				<stop  offset="0.4949" style="stop-color:#E7E8EA"/>
				<stop  offset="0.7469" style="stop-color:#DBDDE0"/>
				<stop  offset="1" style="stop-color:#D7D9DD"/>
			</radialGradient>
			<polygon clip-path="url(#SVGID_4_)" fill="url(#SVGID_5_)" points="-37.046,48.101 46.944,-38.129 133.175,45.861 
				49.185,132.091 			"/>
		</g>
	</g>
	<g>
		<g>
			<defs>
				<rect id="SVGID_6_" x="-892.999" y="-7718.537" width="1920" height="11355.477"/>
			</defs>
			<clipPath id="SVGID_7_">
				<use xlink:href="#SVGID_6_"  overflow="visible"/>
			</clipPath>
			<path clip-path="url(#SVGID_7_)" fill="#009C3D" d="M48.003,76.557c-5.177,0-10.254-1.369-14.751-3.971L21.73,76.557
				l2.369-12.202c-3.714-5.089-5.67-11.073-5.67-17.373c0-16.308,13.268-29.575,29.574-29.575c16.312,0,29.576,13.268,29.576,29.575
				S64.313,76.557,48.003,76.557"/>
		</g>
	</g>
	<g>
		<g>
			<defs>
				<rect id="SVGID_8_" x="-892.999" y="-7718.537" width="1920" height="11355.477"/>
			</defs>
			<clipPath id="SVGID_9_">
				<use xlink:href="#SVGID_8_"  overflow="visible"/>
			</clipPath>
			<path clip-path="url(#SVGID_9_)" fill="#FFFFFF" d="M48.003,66.303c-3.381,0-6.698-0.896-9.637-2.594l-7.527,2.594l1.547-7.973
				c-2.425-3.324-3.704-7.232-3.704-11.35c0-10.654,8.668-19.321,19.321-19.321c10.654,0,19.322,8.667,19.322,19.321
				S58.657,66.303,48.003,66.303 M38.714,60.549l0.582,0.365c2.624,1.645,5.635,2.514,8.707,2.514
				c9.07,0,16.447-7.378,16.447-16.447c0-9.068-7.377-16.446-16.447-16.446c-9.068,0-16.446,7.378-16.446,16.446
				c0,3.689,1.209,7.186,3.493,10.11l0.404,0.516l-0.846,4.356L38.714,60.549z"/>
		</g>
		<g>
			<defs>
				<rect id="SVGID_10_" x="-892.999" y="-7718.537" width="1920" height="11355.477"/>
			</defs>
			<clipPath id="SVGID_11_">
				<use xlink:href="#SVGID_10_"  overflow="visible"/>
			</clipPath>
			<path clip-path="url(#SVGID_11_)" fill="#FFFFFF" d="M38.249,39.557c0,0,1.135-1.98,2.059-2.094
				c0.924-0.114,2.113-0.113,2.435,0.49c0.322,0.603,1.755,4.115,1.755,4.115s0.246,0.604-0.132,1.189
				c-0.377,0.584-1.226,1.434-1.226,1.434s-0.473,0.604,0,1.246c0.472,0.641,1.203,1.82,2.718,3.334
				c1.512,1.513,4.415,2.592,4.415,2.592s0.416,0.057,0.681-0.207c0.263-0.265,1.699-2.057,1.699-2.057s0.46-0.596,1.226-0.246
				c0.764,0.349,4.076,2.001,4.076,2.001s0.389,0.141,0.389,0.726s-0.238,2.018-0.722,2.5c-0.485,0.485-1.899,1.977-4.026,1.977
				s-7.191-1.729-9.891-4.429c-2.699-2.7-5.096-5.437-5.661-7.927C37.476,41.709,37.552,40.583,38.249,39.557"/>
		</g>
	</g>
</g>
</svg>
