<?xml version="1.0" encoding="UTF-8"?> <svg xmlns="http://www.w3.org/2000/svg" xmlns:xlink="http://www.w3.org/1999/xlink" version="1.1" id="Layer_1" x="0px" y="0px" width="424.833px" height="248.559px" viewBox="0 0 424.833 248.559" xml:space="preserve"> <g id="Layer_2"> <path fill="#1D70B7" d="M33.452,221.515H20.101l-2.141,6.318H8.839l12.943-35.773h10.09l12.944,35.773h-9.224L33.452,221.515z M31.21,214.786l-4.434-13.098l-4.383,13.098H31.21z"></path> <path fill="#1D70B7" d="M52.969,226.915c-2.073-0.85-3.729-2.105-4.969-3.771c-1.24-1.664-1.894-3.668-1.962-6.012h9.275 c0.135,1.324,0.592,2.336,1.375,3.031c0.781,0.695,1.801,1.045,3.058,1.045c1.291,0,2.31-0.299,3.057-0.895 c0.747-0.592,1.121-1.418,1.121-2.469c0-0.883-0.297-1.615-0.891-2.193c-0.595-0.576-1.325-1.051-2.192-1.426 c-0.865-0.373-2.098-0.797-3.693-1.273c-2.312-0.713-4.195-1.428-5.658-2.143c-1.461-0.713-2.717-1.764-3.77-3.158 c-1.054-1.393-1.578-3.211-1.578-5.453c0-3.328,1.204-5.936,3.616-7.82c2.412-1.887,5.556-2.828,9.427-2.828 c3.941,0,7.117,0.941,9.53,2.828c2.411,1.885,3.702,4.51,3.872,7.873H63.16c-0.069-1.154-0.493-2.064-1.274-2.729 c-0.781-0.662-1.783-0.994-3.007-0.994c-1.052,0-1.903,0.281-2.547,0.842c-0.646,0.563-0.968,1.367-0.968,2.422 c0,1.154,0.541,2.057,1.63,2.701c1.087,0.645,2.786,1.342,5.096,2.09c2.31,0.779,4.187,1.525,5.631,2.24 c1.443,0.715,2.692,1.748,3.746,3.109c1.052,1.359,1.58,3.107,1.58,5.248c0,2.039-0.521,3.891-1.555,5.555 c-1.037,1.664-2.54,2.99-4.509,3.977c-1.973,0.984-4.299,1.477-6.982,1.477C57.385,228.188,55.041,227.767,52.969,226.915"></path> <path fill="#1D70B7" d="M82.626,226.915c-2.073-0.85-3.729-2.105-4.969-3.771c-1.24-1.666-1.895-3.668-1.963-6.012h9.275 c0.135,1.324,0.594,2.336,1.376,3.031c0.781,0.695,1.8,1.045,3.058,1.045c1.291,0,2.31-0.299,3.057-0.895 c0.747-0.592,1.121-1.418,1.121-2.469c0-0.883-0.297-1.615-0.891-2.193c-0.596-0.576-1.326-1.051-2.192-1.426 c-0.865-0.373-2.099-0.797-3.694-1.273c-2.311-0.713-4.195-1.428-5.656-2.143c-1.461-0.713-2.719-1.764-3.771-3.158 c-1.054-1.393-1.579-3.211-1.579-5.453c0-3.328,1.205-5.936,3.617-7.82c2.412-1.887,5.555-2.828,9.427-2.828 c3.94,0,7.117,0.941,9.53,2.828c2.41,1.885,3.701,4.51,3.871,7.873h-9.426c-0.069-1.154-0.494-2.064-1.274-2.729 c-0.781-0.662-1.783-0.994-3.007-0.994c-1.053,0-1.903,0.281-2.547,0.842c-0.646,0.563-0.969,1.367-0.969,2.422 c0,1.154,0.543,2.057,1.631,2.701c1.086,0.645,2.785,1.342,5.096,2.09c2.31,0.779,4.188,1.525,5.631,2.24s2.691,1.748,3.746,3.109 c1.051,1.359,1.58,3.107,1.58,5.248c0,2.039-0.52,3.891-1.555,5.555c-1.037,1.664-2.541,2.99-4.51,3.977 c-1.972,0.984-4.299,1.477-6.982,1.477C87.042,228.188,84.698,227.767,82.626,226.915"></path> <path fill="#1D70B7" d="M114.04,225.847c-2.803-1.563-5.027-3.746-6.675-6.549c-1.649-2.805-2.472-5.955-2.472-9.455 c0-3.496,0.822-6.641,2.472-9.426c1.647-2.785,3.872-4.961,6.675-6.521c2.803-1.563,5.887-2.346,9.25-2.346 c3.362,0,6.445,0.781,9.248,2.346c2.803,1.563,5.01,3.736,6.625,6.521c1.612,2.785,2.42,5.93,2.42,9.426 c0,3.5-0.814,6.65-2.445,9.455c-1.631,2.803-3.84,4.986-6.625,6.549c-2.786,1.563-5.86,2.344-9.223,2.344 C119.927,228.19,116.843,227.407,114.04,225.847 M130.143,217.386c1.716-1.9,2.573-4.414,2.573-7.543 c0-3.158-0.857-5.682-2.573-7.564c-1.716-1.887-4-2.828-6.853-2.828c-2.89,0-5.19,0.934-6.906,2.803 c-1.715,1.867-2.572,4.398-2.572,7.592c0,3.16,0.857,5.684,2.572,7.568c1.716,1.885,4.017,2.828,6.906,2.828 C126.143,220.241,128.427,219.288,130.143,217.386"></path> <path fill="#1D70B7" d="M145.559,200.44c1.528-2.768,3.659-4.926,6.396-6.471c2.734-1.547,5.834-2.318,9.299-2.318 c4.246,0,7.883,1.121,10.905,3.363c3.023,2.242,5.046,5.299,6.064,9.172h-9.581c-0.713-1.494-1.725-2.633-3.032-3.414 c-1.308-0.779-2.794-1.172-4.458-1.172c-2.686,0-4.859,0.936-6.521,2.803c-1.666,1.869-2.498,4.365-2.498,7.49 c0,3.127,0.832,5.623,2.498,7.492c1.662,1.867,3.836,2.803,6.521,2.803c1.664,0,3.15-0.391,4.458-1.174 c1.308-0.779,2.319-1.918,3.032-3.414h9.581c-1.019,3.875-3.041,6.924-6.064,9.148c-3.022,2.225-6.659,3.338-10.905,3.338 c-3.465,0-6.564-0.771-9.299-2.32c-2.736-1.543-4.867-3.691-6.396-6.443c-1.529-2.752-2.293-5.895-2.293-9.43 C143.266,206.362,144.029,203.212,145.559,200.44"></path> <rect x="181.891" y="192.06" fill="#1D70B7" width="8.714" height="35.773"></rect> <path fill="#1D70B7" d="M217.511,221.515h-13.352l-2.141,6.318h-9.121l12.943-35.773h10.09l12.944,35.773h-9.224L217.511,221.515z M215.27,214.786l-4.435-13.098l-4.382,13.098H215.27z"></path> <path fill="#1D70B7" d="M251.982,219.017c1.308-0.779,2.318-1.918,3.031-3.414h9.58c-0.916,3.434-2.623,6.229-5.121,8.383 c-2.496,2.158-5.527,3.475-9.096,3.951v1.984c1.766,0,3.313,0.486,4.637,1.453c1.325,0.969,1.988,2.42,1.988,4.357 c0,1.936-0.697,3.404-2.089,4.406c-1.394,1.002-3.058,1.506-4.994,1.506h-7.847v-4.791h6.674c0.68,0,1.189-0.104,1.529-0.307 s0.511-0.545,0.511-1.02c0-0.477-0.171-0.809-0.511-0.992c-0.34-0.189-0.851-0.281-1.529-0.281h-3.617v-6.318 c-3.057-0.34-5.758-1.314-8.102-2.932c-2.344-1.613-4.162-3.727-5.455-6.342c-1.29-2.617-1.936-5.539-1.936-8.768 c0-3.533,0.766-6.684,2.295-9.453c1.526-2.77,3.658-4.926,6.395-6.473c2.734-1.545,5.835-2.316,9.299-2.316 c4.247,0,7.882,1.121,10.906,3.361c3.021,2.242,5.045,5.301,6.063,9.174h-9.58c-0.713-1.494-1.725-2.633-3.031-3.414 c-1.308-0.781-2.795-1.172-4.459-1.172c-2.685,0-4.857,0.936-6.521,2.803c-1.666,1.869-2.498,4.365-2.498,7.49 c0,3.127,0.832,5.623,2.498,7.49c1.663,1.869,3.837,2.805,6.521,2.805C249.189,220.188,250.676,219.8,251.982,219.017"></path> <path fill="#1D70B7" d="M290.534,221.515h-13.354l-2.14,6.318h-9.121l12.943-35.773h10.09l12.942,35.773h-9.224L290.534,221.515z M280.749,182.021c0.748,0,1.401,0.111,1.963,0.332c0.56,0.221,1.248,0.553,2.063,0.994c0.61,0.34,1.104,0.586,1.479,0.738 c0.373,0.15,0.764,0.229,1.171,0.229c1.258,0,1.987-0.764,2.192-2.293h4.482c-0.814,5.029-3.158,7.541-7.031,7.541 c-0.748,0-1.4-0.107-1.962-0.33c-0.561-0.221-1.249-0.551-2.063-0.994c-0.611-0.34-1.104-0.586-1.479-0.736 c-0.373-0.152-0.764-0.23-1.172-0.23c-1.258,0-2.005,0.766-2.241,2.293h-4.435C274.532,184.534,276.876,182.021,280.749,182.021 M288.29,214.786l-4.433-13.098l-4.383,13.098H288.29z"></path> <path fill="#1D70B7" d="M311.808,225.847c-2.803-1.563-5.026-3.746-6.674-6.549c-1.648-2.805-2.473-5.955-2.473-9.455 c0-3.496,0.823-6.641,2.473-9.426c1.646-2.785,3.871-4.961,6.674-6.521c2.805-1.563,5.888-2.346,9.25-2.346 s6.445,0.781,9.248,2.346c2.805,1.563,5.011,3.736,6.625,6.521c1.612,2.785,2.42,5.93,2.42,9.426c0,3.5-0.813,6.65-2.444,9.455 c-1.631,2.803-3.84,4.986-6.625,6.549c-2.786,1.563-5.86,2.344-9.224,2.344S314.611,227.407,311.808,225.847 M327.91,217.386 c1.716-1.9,2.574-4.414,2.574-7.543c0-3.158-0.858-5.682-2.574-7.564c-1.716-1.887-4-2.828-6.854-2.828 c-2.89,0-5.189,0.934-6.904,2.803c-1.717,1.867-2.573,4.398-2.573,7.592c0,3.16,0.856,5.684,2.573,7.568 c1.715,1.885,4.016,2.828,6.904,2.828C323.91,220.241,326.194,219.288,327.91,217.386"></path> <path fill="#E84E1B" d="M377.468,209.259c-0.952,1.717-2.413,3.102-4.383,4.152c-1.971,1.053-4.416,1.582-7.338,1.582h-5.401v12.84 h-8.714V192.06h14.115c2.854,0,5.266,0.492,7.234,1.479c1.973,0.986,3.448,2.344,4.434,4.078c0.986,1.73,1.479,3.719,1.479,5.961 C378.895,205.647,378.417,207.542,377.468,209.259 M368.805,206.888c0.815-0.779,1.225-1.885,1.225-3.313 c0-1.426-0.408-2.529-1.225-3.313c-0.814-0.779-2.056-1.172-3.72-1.172h-4.739v8.969h4.739 C366.749,208.062,367.989,207.671,368.805,206.888"></path> <path fill="#E84E1B" d="M405.493,203.372c-0.646-1.189-1.572-2.098-2.777-2.727c-1.207-0.629-2.623-0.943-4.254-0.943 c-2.822,0-5.08,0.928-6.779,2.777c-1.696,1.854-2.547,4.324-2.547,7.414c0,3.297,0.893,5.871,2.675,7.721 c1.784,1.854,4.239,2.777,7.364,2.777c2.142,0,3.949-0.543,5.427-1.631c1.479-1.086,2.558-2.65,3.235-4.688h-11.058v-6.422h18.956 v8.105c-0.646,2.174-1.74,4.195-3.286,6.063s-3.508,3.381-5.887,4.535c-2.379,1.156-5.063,1.732-8.051,1.732 c-3.534,0-6.685-0.771-9.453-2.32c-2.77-1.543-4.926-3.691-6.473-6.445c-1.545-2.752-2.317-5.893-2.317-9.428 c0-3.533,0.772-6.682,2.317-9.453c1.547-2.768,3.695-4.924,6.446-6.471c2.752-1.545,5.894-2.318,9.429-2.318 c4.279,0,7.89,1.035,10.827,3.109c2.938,2.072,4.884,4.941,5.837,8.609h-9.632V203.372z"></path> <path fill="#B1B1B1" d="M278.523,109.315c3.068-7.449,4.33-14.563,2.902-21.979c-1.967-10.204-7.72-17.982-15.997-23.891 c-15.315-10.934-32.493-13.575-50.774-10.859c-0.795,0.118-1.586,0.26-2.52,0.415c5.689-4.376,25.059-9.877,35.995-10.077 C281.883,40.597,304.548,81.685,278.523,109.315"></path> <path fill="#E84E1B" d="M272.196,39.748c-4.567-6.638-9.841-11.577-16.833-14.428c-9.623-3.923-19.279-3.347-28.748,0.364 c-17.521,6.865-29.111,19.817-36.813,36.616c-0.334,0.729-0.647,1.471-1.027,2.338c-0.562-7.157,5.402-26.388,11.203-35.661 C216.449-0.574,263.248,2.86,272.196,39.748"></path> <path fill="#1D70B7" d="M198.593,7.834c-7.863,1.759-14.414,4.805-19.67,10.227c-7.231,7.461-10.305,16.635-10.398,26.805 c-0.175,18.817,7.512,34.406,20.219,47.823c0.553,0.584,1.123,1.151,1.785,1.827c-6.848-2.152-22.462-14.866-28.896-23.71 C140.369,44.49,161.033,2.359,198.593,7.834"></path> <path fill="#B1B1B1" d="M146.051,51.004c-3.069,7.45-4.331,14.563-2.903,21.979c1.967,10.203,7.721,17.981,15.997,23.89 c15.315,10.934,32.494,13.575,50.774,10.86c0.795-0.119,1.587-0.261,2.521-0.415c-5.689,4.375-25.06,9.876-35.996,10.077 C142.691,119.724,120.026,78.636,146.051,51.004"></path> <path fill="#E84E1B" d="M152.378,120.572c4.567,6.639,9.84,11.578,16.832,14.43c9.623,3.922,19.28,3.346,28.75-0.365 c17.521-6.865,29.11-19.816,36.813-36.616c0.334-0.729,0.647-1.471,1.026-2.337c0.562,7.156-5.401,26.388-11.202,35.66 C208.126,160.896,161.327,157.46,152.378,120.572"></path> <path fill="#1D70B7" d="M225.982,152.484c7.862-1.758,14.414-4.803,19.67-10.226c7.231-7.461,10.305-16.634,10.397-26.804 c0.177-18.818-7.512-34.406-20.219-47.824c-0.554-0.584-1.123-1.151-1.785-1.827c6.849,2.152,22.463,14.866,28.897,23.711 C284.205,115.832,263.541,157.96,225.982,152.484"></path> </g> </svg> 