<?xml version="1.0" encoding="UTF-8"?> <svg xmlns="http://www.w3.org/2000/svg" xmlns:xlink="http://www.w3.org/1999/xlink" version="1.1" id="Layer_1" x="0px" y="0px" width="206.434px" height="138.667px" viewBox="0 0 206.434 138.667" xml:space="preserve"> <g> <path fill-rule="evenodd" clip-rule="evenodd" fill="#FEFEFE" d="M103.205,132.037c-33.513,0-67.027-0.027-100.54,0.063 c-2.239,0.006-2.693-0.451-2.689-2.689C0.06,86.894,0.06,44.377-0.024,1.86c-0.004-2.238,0.451-2.69,2.688-2.688 c67.027,0.075,134.054,0.075,201.082,0c2.236-0.002,2.692,0.45,2.688,2.688c-0.085,42.517-0.085,85.034,0,127.551 c0.004,2.238-0.45,2.695-2.688,2.689C170.232,132.01,136.718,132.037,103.205,132.037z"></path> <path fill-rule="evenodd" clip-rule="evenodd" fill="#1E71B8" d="M114.347,87.032c14.971-5.202,16.923-23.425,4.593-38.912 c3.837,1.761,6.949,4.55,9.771,7.646c5.402,5.926,7.213,12.676,4.134,20.347C129.892,83.47,123.044,87.717,114.347,87.032z"></path> <path fill-rule="evenodd" clip-rule="evenodd" fill="#1E71B8" d="M93.014,58.099c-4.503-2.792-8.447-6.234-11.305-10.7 c-4.069-6.359-4.049-13-0.247-19.433c3.589-6.071,9.081-8.94,16.878-8.657c-2.426,1.448-4.458,2.334-6.096,3.696 c-6.606,5.494-6.953,12.787-5.529,20.494c0.929,5.028,3.705,9.18,6.463,13.332C93.438,57.294,93.384,57.717,93.014,58.099z"></path> <path fill-rule="evenodd" clip-rule="evenodd" fill="#B3B2B2" d="M104.191,67.395c-5.529,2.085-11.162,3.577-17.16,3.19 c-7.372-0.475-12.442-4.42-15.315-10.907c-2.954-6.668-1.946-13.059,3-19.129c-2.27,14.102,4.785,23.417,18.739,25.553 c3.114,0.477,6.194,0.672,9.318,0.579C103.526,66.364,104.267,66.067,104.191,67.395z"></path> <path fill-rule="evenodd" clip-rule="evenodd" fill="#E84E1C" d="M95.74,44.597c0.725-5.942,2.431-11.407,5.604-16.269 c6.858-10.505,22.274-11.181,29.769-1.366c0.782,1.024,1.915,1.992,1.434,4.259c-6.627-5.486-13.661-6.298-21.192-2.675 C104.158,32.01,99.432,37.797,95.74,44.597z"></path> <path fill-rule="evenodd" clip-rule="evenodd" fill="#B3B2B2" d="M108.977,39.107c5.31-1.824,10.639-3.362,16.375-3.202 c13.243,0.369,21.881,15.465,15.307,26.936c-0.363,0.632-0.753,1.3-1.858,1.505c-0.11-3.37,0.724-6.764-0.532-10.029 c-3.227-8.386-10.175-11.866-18.234-13.744c-2.89-0.673-5.89-1.025-8.9-0.741C110.327,39.853,109.143,40.994,108.977,39.107z"></path> <path fill-rule="evenodd" clip-rule="evenodd" fill="#E84E1C" d="M79.941,75.263c6.471,5.431,13.39,6.427,20.984,3.075 c7.098-3.133,12.065-8.495,15.809-15.232c-0.646,6.461-2.495,12.388-6.69,17.263c-4.751,5.521-11.037,7.13-17.961,5.69 C86.169,84.83,81.995,81.208,79.941,75.263z"></path> <path fill-rule="evenodd" clip-rule="evenodd" fill="#1F72B8" d="M130.759,116.986c-0.911,3.618-3.313,4.821-6.396,5.76 c1.479,1.373,3.876,1.971,2.96,4.32c-0.787,2.017-2.646,2.056-4.433,1.941c-0.867-0.056-2.268,0.506-2.226-1.135 c0.04-1.597,1.426-0.931,2.29-1.104c0.364-0.072,0.736-0.101,1.52-0.204c-2.577-1.881-4.019-4.345-6.762-5.898 c-3.755-2.127-4.043-8.526-1.243-12.052c2.676-3.369,8.403-4.077,11.815-1.337c1.195,0.96,3.101,2.317,1.938,3.832 c-0.81,1.053-3.001,0.769-4.353-0.589c-1.427-1.434-3.159-1.448-4.837-0.631c-1.622,0.79-2.175,2.412-2.207,4.072 c-0.033,1.8,0.507,3.501,2.259,4.419c1.565,0.82,3.239,0.83,4.51-0.463C127.107,116.379,128.765,116.983,130.759,116.986z"></path> <path fill-rule="evenodd" clip-rule="evenodd" fill="#E84F1D" d="M201.355,110.9c-1.748,0.105-3.329,0.478-4.991-0.636 c-2.301-1.542-4.749-1.308-6.096,1.22c-1.237,2.32-1.187,4.93,1.224,6.738c2.137,1.604,4.146,1.042,6.306-1.554 c-0.153-0.136-0.288-0.318-0.47-0.409c-1.367-0.686-4.207,1.116-4.132-1.589c0.083-2.957,2.917-1.212,4.47-1.441 c1.324-0.196,3.404-0.895,4.062,0.654c0.772,1.826,0.278,3.899-1.109,5.611c-2.351,2.902-7.001,3.979-10.564,2.353 c-3.269-1.492-5.17-5.192-4.636-9.023c0.535-3.849,3.354-6.662,7.118-7.106C197.027,105.187,199.767,106.751,201.355,110.9z"></path> <path fill-rule="evenodd" clip-rule="evenodd" fill="#1F72B8" d="M157.675,105.611c4.976,0.052,8.414,3.559,8.383,8.549 c-0.03,4.906-3.632,8.546-8.471,8.56c-4.915,0.012-8.859-3.998-8.687-8.834C149.074,109.022,152.747,105.56,157.675,105.611z"></path> <path fill-rule="evenodd" clip-rule="evenodd" fill="#1F72B8" d="M73.451,115.46c-2,5.197-4.942,7.527-9.157,7.254 c-4.024-0.259-7.25-2.987-7.964-6.734c-0.789-4.141,1.095-7.993,4.718-9.646c3.66-1.669,8.01-0.681,10.499,2.444 c0.537,0.675,0.896,1.49,1.338,2.24C72.954,112.515,75.111,113.744,73.451,115.46z"></path> <path fill-rule="evenodd" clip-rule="evenodd" fill="#1F72B8" d="M27.778,122.208c-2.445,0.382-4.021,0.629-5.111-1.749 c-0.806-1.757-5.841-1.443-6.698,0.427c-1.005,2.192-2.727,1.893-4.017,1.332c-1.436-0.624-0.029-1.991,0.261-2.881 c1.234-3.789,2.777-7.476,4.018-11.263c0.551-1.683,1.322-2.406,3.167-2.368c1.724,0.035,2.685,0.431,3.272,2.224 C24.216,112.652,26.002,117.297,27.778,122.208z"></path> <path fill-rule="evenodd" clip-rule="evenodd" fill="#1E71B8" d="M140.005,105.814c1.768-0.388,2.732,0.303,3.313,2.044 c1.339,4.012,2.91,7.945,4.258,11.953c0.252,0.75,1.438,2.011-0.034,2.474c-1.12,0.353-2.54,0.714-3.655-0.796 c-2.15-2.911-5.237-2.881-7.542,0.004c-1.112,1.393-2.558,1.232-3.688,0.75c-1.31-0.559-0.186-1.728,0.102-2.56 c1.341-3.881,2.801-7.722,4.117-11.61C137.413,106.487,138.075,105.325,140.005,105.814z"></path> <path fill-rule="evenodd" clip-rule="evenodd" fill="#1E71B8" d="M114.132,122.141c-2.238,0.433-3.967,0.919-5.086-1.748 c-0.651-1.555-5.922-1.395-6.57,0.2c-1.056,2.601-2.776,1.85-4.905,1.591c1.812-5.047,3.615-9.919,5.292-14.834 c0.54-1.585,1.635-1.627,2.938-1.594c1.248,0.032,2.439-0.138,3.001,1.499C110.496,112.189,112.311,117.082,114.132,122.141z"></path> <path fill-rule="evenodd" clip-rule="evenodd" fill="#1F72B8" d="M74.21,112.476c1.46-7.681,10.006-8.192,13.708-5.09 c1.1,0.922,2.814,2.297,1.87,3.579c-0.886,1.201-2.942,0.93-4.297-0.323c-1.712-1.584-3.633-1.77-5.425-0.424 c-1.744,1.31-2.162,3.26-1.551,5.374c0.904,3.134,3.689,4.341,6.363,2.433c1.721-1.227,4.084-1.991,4.869-0.587 c0.872,1.562-1.236,3.222-2.906,4.139c-5.291,2.908-10.806,0.271-12.655-6.008C73.885,114.536,73.743,113.503,74.21,112.476z"></path> <path fill-rule="evenodd" clip-rule="evenodd" fill="#1F72B8" d="M35.205,105.595c0.523,0.108,1.685,0.173,2.69,0.603 c1.538,0.658,3.322,1.976,2.497,3.57c-0.747,1.441-2.843,1.054-4.202-0.088c-1.125-0.944-2.279-1.463-3.013,0.138 c-0.653,1.424,0.733,1.903,1.75,2.348c1.254,0.549,2.621,0.88,3.801,1.549c3.015,1.711,3.313,5.248,0.727,7.507 c-2.427,2.119-7.528,1.899-9.646-0.456c-0.665-0.739-1.503-1.687-1.013-2.642c0.524-1.021,1.797-0.428,2.743-0.512 c0.828-0.074,1.299,0.483,1.862,1.021c1.048,1.002,2.394,1.172,3.148-0.208c0.764-1.395-0.542-1.946-1.59-2.391 c-0.686-0.29-1.418-0.472-2.121-0.724c-2.678-0.963-4.843-2.438-4.182-5.707C29.292,106.461,31.753,105.649,35.205,105.595z"></path> <path fill-rule="evenodd" clip-rule="evenodd" fill="#E8501E" d="M171.883,113.939c-0.003-0.498-0.003-0.995-0.003-1.493 c0-6.812,1.99-8.317,8.707-6.465c2.713,0.748,4.226,2.539,4.057,5.471c-0.158,2.74-1.7,4.677-4.329,4.745 c-3.233,0.085-4.869,0.941-4.289,4.451c0.249,1.505-0.778,1.835-2.093,1.837c-1.31,0.001-2.126-0.265-2.068-1.831 C171.947,118.418,171.886,116.178,171.883,113.939z"></path> <path fill-rule="evenodd" clip-rule="evenodd" fill="#1E71B8" d="M48.662,105.585c0.615,0.068,1.374,0.086,2.102,0.244 c1.836,0.397,3.15,1.447,3.792,3.257c0.176,0.497,0.239,1.118-0.369,1.212c-1.576,0.241-3.158,0.567-4.473-0.939 c-0.744-0.853-1.902-0.864-2.549,0.202c-0.874,1.439,0.327,1.988,1.369,2.449c1.367,0.605,2.85,0.99,4.135,1.727 c2.925,1.677,3.173,5.371,0.612,7.542c-2.375,2.014-7.18,1.842-9.359-0.356c-0.802-0.809-1.721-1.826-0.97-2.911 c0.582-0.841,1.928-0.576,2.829-0.317c0.89,0.257,1.577,1.163,2.461,1.51c0.804,0.315,1.76,0.256,2.271-0.726 c0.545-1.046-0.088-1.703-0.889-2.112c-0.881-0.45-1.859-0.715-2.802-1.037c-2.716-0.925-4.78-2.369-4.175-5.679 C43.242,106.389,45.712,105.712,48.662,105.585z"></path> <path fill-rule="evenodd" clip-rule="evenodd" fill="#1D71B7" d="M96.826,114.552c0.001,1.984-0.107,3.976,0.032,5.949 c0.131,1.867-0.366,2.624-2.422,2.602c-2-0.021-2.156-0.952-2.132-2.514c0.064-4.216,0.114-8.436-0.018-12.646 c-0.061-1.943,0.797-2.207,2.434-2.21c1.597-0.001,2.213,0.491,2.133,2.125C96.744,110.084,96.826,112.32,96.826,114.552z"></path> <path fill-rule="evenodd" clip-rule="evenodd" fill="#2576BA" d="M140.957,104.445c-0.896,0.075-1.754-1.258-2.942-0.619 c-0.836,0.45-1.878,1.374-2.251-0.136c-0.272-1.104,0.671-2.094,1.889-2.405c2.092-0.535,4.159,1.311,6.37-0.006 c0.579-0.345,0.703,0.674,0.427,1.294C143.81,104,142.711,104.603,140.957,104.445z"></path> <path fill-rule="evenodd" clip-rule="evenodd" fill="#D4D4D4" d="M108.977,39.107c0.514,0.854,1.424,0.522,2.156,0.723 c-1.171,1.087-2.529,0.531-3.935,0.695C107.483,39.34,108.311,39.34,108.977,39.107z"></path> <path fill-rule="evenodd" clip-rule="evenodd" fill="#CCDEEE" d="M74.21,112.476c-0.008,1.031-0.016,2.063-0.024,3.093 c-0.25,0-0.495-0.035-0.735-0.108c-0.189-1.479-0.377-2.961-0.566-4.441C73.327,111.505,73.769,111.99,74.21,112.476z"></path> <path fill-rule="evenodd" clip-rule="evenodd" fill="#4288C3" d="M93.014,58.099c0.054-0.423,0.109-0.845,0.164-1.268 c0.902,0.724,1.998,1.305,2.078,3.108C94.345,59.191,93.679,58.645,93.014,58.099z"></path> <path fill-rule="evenodd" clip-rule="evenodd" fill="#D2D2D2" d="M104.191,67.395c-0.472-0.237-0.944-0.476-1.417-0.714 c0.765-0.722,1.782-1.069,2.486-0.307C105.658,66.804,104.786,67.259,104.191,67.395z"></path> <path fill-rule="evenodd" clip-rule="evenodd" fill="#FBFCFD" d="M162.055,113.802c-0.242,2.957-1.415,5.088-4.464,5.104 c-3.009,0.018-4.468-1.934-4.441-4.837c0.025-2.677,1.234-4.566,4.163-4.711C160.477,109.201,161.626,111.223,162.055,113.802z"></path> <path fill-rule="evenodd" clip-rule="evenodd" fill="#FCFCFD" d="M69.115,113.725c-0.015,3.157-1.329,5.14-4.341,5.185 c-3.038,0.044-4.479-2.033-4.459-4.848c0.019-2.588,1.19-4.605,4.173-4.699C67.6,109.263,68.93,111.063,69.115,113.725z"></path> <path fill-rule="evenodd" clip-rule="evenodd" fill="#EFF4F9" d="M19.146,111.334c1.175,1.497,2.373,2.95,1.518,4.798 c-0.162,0.352-2.063,0.474-2.345,0.095C16.975,114.415,19.132,113.083,19.146,111.334z"></path> <path fill-rule="evenodd" clip-rule="evenodd" fill="#E9F1F7" d="M140.026,110.492c0.9,2.386,2.252,3.902,1.475,5.534 c-0.397,0.833-2.003,0.455-3.314-0.023C138.723,114.393,139.253,112.807,140.026,110.492z"></path> <path fill-rule="evenodd" clip-rule="evenodd" fill="#E4EDF6" d="M105.769,111.377c0.646,1.654,2.441,3.01,1.323,4.84 c-0.233,0.385-2.033,0.435-2.379,0.022C103.204,114.441,105.454,113.091,105.769,111.377z"></path> <path fill-rule="evenodd" clip-rule="evenodd" fill="#FDF5F2" d="M180.512,111.138c-0.152,1.402-0.973,2.065-2.446,2.15 c-1.38,0.079-2.104-0.337-2.037-1.844c0.057-1.29-0.043-2.596,1.854-2.459C179.231,109.082,180.312,109.508,180.512,111.138z"></path> </g> </svg> 