<?xml version="1.0" encoding="UTF-8"?> <svg xmlns="http://www.w3.org/2000/svg" xmlns:xlink="http://www.w3.org/1999/xlink" version="1.1" id="Layer_1" x="0px" y="0px" width="206.434px" height="138.667px" viewBox="0 0 206.434 138.667" xml:space="preserve"> <g id="Layer_2" display="none"> <rect x="0" y="-2.667" display="inline" fill="#FF3333" width="211.217" height="147"></rect> </g> <g id="Layer_1_1_"> <g> <path fill="#1E71B8" d="M114.347,87.033c14.971-5.203,16.923-23.426,4.593-38.913c3.837,1.761,6.949,4.55,9.771,7.646 c5.4,5.926,7.213,12.676,4.134,20.347C129.892,83.47,123.044,87.716,114.347,87.033z"></path> <path fill="#1E71B8" d="M93.014,58.099c-4.503-2.792-8.447-6.234-11.305-10.7c-4.069-6.359-4.049-13-0.247-19.433 c3.589-6.071,9.081-8.94,16.878-8.657c-2.426,1.448-4.458,2.334-6.096,3.696c-6.606,5.494-6.953,12.787-5.529,20.494 c0.929,5.028,3.705,9.18,6.463,13.332C93.438,57.294,93.384,57.717,93.014,58.099z"></path> <path fill="#B3B2B2" d="M104.191,67.395c-5.527,2.085-11.162,3.577-17.158,3.19c-7.372-0.477-12.442-4.42-15.315-10.909 c-2.954-6.668-1.946-13.059,3-19.129c-2.271,14.102,4.785,23.417,18.739,25.553c3.112,0.477,6.192,0.672,9.316,0.579 C103.526,66.364,104.267,66.067,104.191,67.395z"></path> <path fill="#E84E1C" d="M95.74,44.597c0.725-5.942,2.431-11.407,5.604-16.269c6.858-10.505,22.274-11.181,29.769-1.366 c0.782,1.024,1.915,1.992,1.436,4.259c-6.627-5.486-13.661-6.298-21.192-2.675C104.158,32.01,99.432,37.797,95.74,44.597z"></path> <path fill="#B3B2B2" d="M108.977,39.107c5.312-1.824,10.641-3.362,16.375-3.202c13.243,0.369,21.881,15.465,15.309,26.936 c-0.363,0.632-0.754,1.3-1.858,1.505c-0.11-3.37,0.724-6.764-0.532-10.029c-3.227-8.386-10.175-11.866-18.232-13.744 c-2.892-0.673-5.892-1.025-8.9-0.741C110.327,39.853,109.143,40.994,108.977,39.107z"></path> <path fill="#E84E1C" d="M79.941,75.263c6.473,5.431,13.392,6.427,20.984,3.074c7.098-3.133,12.065-8.494,15.809-15.231 c-0.646,6.461-2.495,12.388-6.688,17.263c-4.751,5.521-11.037,7.131-17.961,5.69C86.169,84.83,81.995,81.208,79.941,75.263z"></path> <path fill="#1F72B8" d="M130.759,116.986c-0.911,3.618-3.313,4.821-6.396,5.76c1.479,1.373,3.878,1.971,2.962,4.32 c-0.787,2.018-2.646,2.057-4.435,1.941c-0.867-0.057-2.268,0.506-2.226-1.135c0.04-1.599,1.426-0.933,2.29-1.104 c0.362-0.072,0.734-0.101,1.52-0.204c-2.577-1.881-4.019-4.346-6.762-5.898c-3.755-2.127-4.043-8.524-1.243-12.051 c2.676-3.369,8.403-4.078,11.815-1.338c1.193,0.96,3.101,2.316,1.938,3.832c-0.81,1.053-3.001,0.77-4.353-0.589 c-1.429-1.435-3.159-1.448-4.837-0.631c-1.622,0.79-2.177,2.411-2.207,4.071c-0.033,1.801,0.507,3.502,2.259,4.42 c1.563,0.82,3.239,0.83,4.51-0.463C127.107,116.378,128.765,116.983,130.759,116.986z"></path> <path fill="#E84F1D" d="M201.355,110.9c-1.748,0.105-3.329,0.479-4.991-0.636c-2.301-1.542-4.747-1.308-6.096,1.22 c-1.235,2.32-1.187,4.93,1.226,6.738c2.137,1.604,4.146,1.042,6.306-1.555c-0.153-0.135-0.288-0.317-0.47-0.408 c-1.367-0.686-4.207,1.115-4.134-1.59c0.083-2.957,2.917-1.211,4.472-1.44c1.324-0.196,3.402-0.896,4.062,0.653 c0.772,1.826,0.278,3.9-1.107,5.611c-2.353,2.901-7.001,3.979-10.564,2.354c-3.269-1.492-5.17-5.191-4.636-9.023 c0.535-3.849,3.354-6.662,7.118-7.105C197.027,105.187,199.767,106.751,201.355,110.9z"></path> <path fill="#1F72B8" d="M157.675,105.611c4.976,0.053,8.414,3.559,8.383,8.549c-0.03,4.906-3.632,8.547-8.471,8.562 c-4.915,0.012-8.859-3.998-8.688-8.834C149.074,109.022,152.747,105.56,157.675,105.611z"></path> <path fill="#1F72B8" d="M73.451,115.46c-2,5.197-4.942,7.525-9.157,7.254c-4.024-0.26-7.25-2.987-7.964-6.734 c-0.789-4.141,1.095-7.993,4.718-9.646c3.66-1.668,8.01-0.681,10.499,2.444c0.537,0.675,0.896,1.49,1.338,2.24 C72.954,112.515,75.111,113.744,73.451,115.46z"></path> <path fill="#1F72B8" d="M27.778,122.208c-2.443,0.381-4.021,0.629-5.109-1.75c-0.808-1.756-5.841-1.442-6.698,0.428 c-1.005,2.191-2.727,1.893-4.017,1.332c-1.438-0.625-0.029-1.991,0.261-2.881c1.232-3.789,2.777-7.478,4.018-11.264 c0.553-1.684,1.322-2.406,3.167-2.367c1.726,0.035,2.687,0.431,3.272,2.224C24.216,112.652,26.002,117.296,27.778,122.208z"></path> <path fill="#1E71B8" d="M140.005,105.814c1.768-0.389,2.73,0.303,3.313,2.044c1.341,4.013,2.91,7.944,4.26,11.953 c0.252,0.75,1.438,2.011-0.034,2.474c-1.12,0.354-2.54,0.715-3.655-0.795c-2.15-2.912-5.237-2.882-7.542,0.004 c-1.112,1.394-2.558,1.231-3.688,0.75c-1.312-0.56-0.188-1.729,0.102-2.561c1.341-3.881,2.801-7.723,4.117-11.609 C137.413,106.487,138.075,105.326,140.005,105.814z"></path> <path fill="#1E71B8" d="M114.132,122.141c-2.238,0.433-3.967,0.919-5.086-1.748c-0.651-1.556-5.922-1.396-6.57,0.2 c-1.056,2.601-2.774,1.85-4.905,1.591c1.813-5.047,3.615-9.919,5.292-14.834c0.54-1.585,1.637-1.627,2.938-1.595 c1.248,0.033,2.439-0.137,3.001,1.5C110.496,112.189,112.311,117.082,114.132,122.141z"></path> <path fill="#1F72B8" d="M74.21,112.476c1.46-7.682,10.006-8.191,13.708-5.09c1.1,0.922,2.813,2.297,1.87,3.578 c-0.888,1.201-2.942,0.931-4.297-0.322c-1.714-1.584-3.635-1.77-5.427-0.424c-1.744,1.31-2.162,3.26-1.551,5.373 c0.904,3.135,3.689,4.342,6.363,2.434c1.721-1.227,4.084-1.99,4.869-0.587c0.872,1.562-1.236,3.222-2.906,4.14 c-5.291,2.907-10.806,0.271-12.655-6.009C73.885,114.537,73.743,113.503,74.21,112.476z"></path> <path fill="#1F72B8" d="M35.205,105.595c0.521,0.107,1.685,0.173,2.688,0.604c1.538,0.657,3.322,1.975,2.497,3.569 c-0.747,1.44-2.843,1.054-4.202-0.088c-1.125-0.944-2.277-1.464-3.013,0.138c-0.653,1.424,0.733,1.903,1.75,2.348 c1.254,0.549,2.621,0.881,3.801,1.549c3.017,1.711,3.313,5.248,0.729,7.509c-2.429,2.118-7.528,1.897-9.646-0.456 c-0.665-0.739-1.503-1.688-1.013-2.643c0.522-1.021,1.797-0.429,2.743-0.513c0.828-0.073,1.299,0.483,1.86,1.021 c1.05,1.002,2.396,1.174,3.148-0.207c0.764-1.395-0.542-1.945-1.59-2.391c-0.688-0.291-1.418-0.473-2.121-0.725 c-2.678-0.963-4.843-2.438-4.184-5.707C29.292,106.46,31.753,105.649,35.205,105.595z"></path> <path fill="#E8501E" d="M171.883,113.939c-0.003-0.498-0.003-0.995-0.003-1.493c0-6.812,1.99-8.317,8.707-6.465 c2.713,0.748,4.226,2.539,4.057,5.472c-0.158,2.739-1.7,4.676-4.329,4.744c-3.231,0.086-4.869,0.941-4.289,4.451 c0.249,1.505-0.776,1.835-2.093,1.837c-1.31,0.001-2.126-0.265-2.066-1.831C171.947,118.417,171.886,116.177,171.883,113.939z"></path> <path fill="#1E71B8" d="M48.662,105.585c0.613,0.066,1.374,0.086,2.102,0.244c1.836,0.396,3.15,1.445,3.792,3.256 c0.176,0.498,0.239,1.119-0.369,1.213c-1.576,0.24-3.158,0.566-4.473-0.939c-0.744-0.854-1.902-0.863-2.549,0.202 c-0.874,1.438,0.327,1.987,1.369,2.448c1.365,0.605,2.85,0.99,4.135,1.728c2.925,1.677,3.173,5.371,0.61,7.542 c-2.375,2.014-7.18,1.842-9.357-0.355c-0.802-0.809-1.721-1.825-0.97-2.912c0.582-0.84,1.928-0.574,2.827-0.315 c0.892,0.259,1.577,1.163,2.463,1.511c0.804,0.314,1.76,0.256,2.271-0.727c0.545-1.046-0.088-1.703-0.889-2.111 c-0.881-0.449-1.859-0.716-2.804-1.037c-2.716-0.926-4.778-2.369-4.175-5.68C43.242,106.389,45.712,105.712,48.662,105.585z"></path> <path fill="#1D71B7" d="M96.826,114.552c0.001,1.984-0.107,3.976,0.03,5.949c0.131,1.867-0.364,2.623-2.422,2.602 c-2-0.021-2.156-0.952-2.132-2.514c0.064-4.217,0.114-8.438-0.018-12.646c-0.063-1.943,0.797-2.207,2.434-2.21 c1.597-0.001,2.213,0.491,2.133,2.125C96.744,110.083,96.826,112.32,96.826,114.552z"></path> <path fill="#2576BA" d="M140.957,104.445c-0.896,0.075-1.754-1.258-2.942-0.619c-0.836,0.45-1.878,1.375-2.251-0.136 c-0.271-1.104,0.671-2.094,1.889-2.405c2.094-0.535,4.159,1.313,6.37-0.006c0.579-0.345,0.703,0.674,0.429,1.295 C143.81,104,142.711,104.603,140.957,104.445z"></path> <path fill="#D4D4D4" d="M108.977,39.107c0.516,0.854,1.424,0.522,2.156,0.723c-1.171,1.087-2.529,0.531-3.935,0.695 C107.483,39.34,108.311,39.34,108.977,39.107z"></path> <path fill="#CCDEEE" d="M74.21,112.476c-0.008,1.031-0.018,2.063-0.024,3.093c-0.25,0-0.495-0.034-0.733-0.108 c-0.189-1.479-0.377-2.961-0.566-4.439C73.327,111.505,73.769,111.99,74.21,112.476z"></path> <path fill="#4288C3" d="M93.014,58.099c0.054-0.423,0.109-0.845,0.164-1.268c0.902,0.724,1.998,1.305,2.078,3.108 C94.345,59.191,93.679,58.645,93.014,58.099z"></path> <path fill="#D2D2D2" d="M104.191,67.395c-0.472-0.237-0.942-0.476-1.417-0.714c0.767-0.722,1.782-1.069,2.486-0.307 C105.658,66.804,104.786,67.259,104.191,67.395z"></path> <path fill="#FBFCFD" d="M162.055,113.802c-0.242,2.957-1.415,5.088-4.464,5.104c-3.009,0.018-4.468-1.934-4.441-4.837 c0.025-2.677,1.234-4.565,4.163-4.711C160.477,109.201,161.626,111.223,162.055,113.802z"></path> <path fill="#FCFCFD" d="M69.115,113.725c-0.017,3.157-1.329,5.14-4.343,5.185c-3.038,0.045-4.479-2.033-4.459-4.848 c0.021-2.588,1.19-4.605,4.173-4.699C67.6,109.263,68.93,111.063,69.115,113.725z"></path> <path fill="#EFF4F9" d="M19.146,111.333c1.175,1.498,2.373,2.951,1.52,4.799c-0.162,0.352-2.063,0.474-2.347,0.095 C16.975,114.416,19.132,113.083,19.146,111.333z"></path> <path fill="#E9F1F7" d="M140.026,110.492c0.9,2.387,2.252,3.902,1.477,5.534c-0.397,0.833-2.003,0.455-3.314-0.022 C138.723,114.393,139.253,112.807,140.026,110.492z"></path> <path fill="#E4EDF6" d="M105.769,111.376c0.646,1.654,2.441,3.011,1.323,4.84c-0.233,0.386-2.033,0.436-2.379,0.023 C103.204,114.441,105.454,113.091,105.769,111.376z"></path> <path fill="#FDF5F2" d="M180.512,111.138c-0.152,1.402-0.973,2.064-2.446,2.15c-1.38,0.078-2.104-0.338-2.037-1.846 c0.059-1.29-0.043-2.596,1.854-2.459C179.231,109.082,180.312,109.507,180.512,111.138z"></path> </g> </g> </svg> 